<?xml version="1.0" encoding="utf-8"?>
<!-- Generator: Adobe Illustrator 16.0.4, SVG Export Plug-In . SVG Version: 6.00 Build 0)  -->
<!DOCTYPE svg PUBLIC "-//W3C//DTD SVG 1.1//EN" "http://www.w3.org/Graphics/SVG/1.1/DTD/svg11.dtd">
<svg version="1.1" id="Layer_1" xmlns="http://www.w3.org/2000/svg" xmlns:xlink="http://www.w3.org/1999/xlink" x="0px" y="0px"
	 width="83.564px" height="83.564px" viewBox="0 0 83.564 83.564" enable-background="new 0 0 83.564 83.564" xml:space="preserve">
<circle fill="#060305" cx="41.782" cy="41.783" r="41.782"/>
<circle fill="#EBA327" cx="41.782" cy="41.783" r="39.643"/>
<path fill="#FFFFFF" d="M26.881,19.215c0,0,4.867-11.043,17.441-11.809c0,0,11.502-1.534,18.249,7.514L47.85,17.066L26.881,19.215z"
	/>
<g>
	<path fill="#EBA327" d="M55.045,61.471c0.289-0.66,0.664-1.832,0.467-3.129c0,0-0.904-2.311,3.32-0.77
		c0,0,10.561,1.852,9.654-3.699c0,0-0.1-0.928-0.219-1.686c-0.027-0.17-0.185-0.578-0.289-0.75c-0.311-0.516-0.641-1.654,1.716-2.5
		c0,0,0.454-1.078-0.151-1.541c0,0,1.207-1.234,0.151-2.775c0,0-1.358-2.773,1.206-2.93c0,0,2.715,0,0.753-4.162
		c0,0-2.563-4.316-3.619-5.394c0,0-1.206-0.464-0.452-1.851c0,0,0.89-2.41,0.149-6.012c0,0-2.794-13.465-12.22-15.109
		c0,0-5.983-0.975-11.57-0.261c0,0-8.501,0.343-13.321,11.206c0,0-2.306,5.033,0.905,14.339c0,0,3.968,11.517,1.81,19.731
		c0,0-1.228,5.143-11.033,13.93l-0.098,4.016l34.718,0.281c0,0-3.822-3.734-3.822-6.51c0,0-0.377-2.305,1.158-3.533L55.045,61.471z"
		/>
	<path fill="#EBA327" d="M55.017,60.709c0.288-0.662,0.662-1.832,0.466-3.131c0,0-0.904-2.311,3.32-0.77
		c0,0,10.561,1.85,9.655-3.699c0,0-0.101-0.924-0.22-1.686c-0.027-0.168-0.186-0.576-0.289-0.752
		c-0.311-0.514-0.641-1.652,1.717-2.496c0,0,0.451-1.08-0.152-1.543c0,0,1.207-1.234,0.152-2.774c0,0-1.359-2.774,1.207-2.928
		c0,0,2.713,0,0.754-4.163c0,0-2.564-4.316-3.622-5.396c0,0-1.207-0.464-0.452-1.851c0,0,0.89-2.41,0.15-6.012
		c0,0-2.795-13.463-12.221-15.109c0,0-5.982-0.973-11.57-0.262c0,0-8.5,0.344-13.323,11.207c0,0-2.305,5.032,0.905,14.339
		c0,0,3.97,11.515,1.812,19.733c0,0-1.195,5.127-11.001,13.914l-0.077,4.023l31.962,0.287c0,0-1.119-3.734-1.119-6.51
		c0,0-0.377-2.307,1.156-3.531L55.017,60.709z"/>
	<path fill="#EBA327" d="M51.719,60.027c0.269-0.615,0.615-1.703,0.432-2.91c0,0-0.84-2.146,3.085-0.713
		c0,0,9.813,1.719,8.972-3.439c0,0-0.094-0.861-0.205-1.564c-0.024-0.158-0.17-0.537-0.268-0.697
		c-0.29-0.479-0.596-1.537,1.594-2.32c0,0,0.422-1.004-0.141-1.434c0,0,1.121-1.146,0.141-2.576c0,0-1.261-2.579,1.123-2.725
		c0,0,2.521,0,0.699-3.867c0,0-2.383-4.008-3.363-5.011c0,0-1.123-0.431-0.422-1.72c0,0,0.828-2.239,0.141-5.586
		c0,0-2.597-12.506-11.355-14.035c0,0-5.558-0.906-10.75-0.245c0,0-7.896,0.319-12.376,10.413c0,0-2.141,4.675,0.84,13.321
		c0,0,3.688,10.698,1.682,18.333c0,0-2.815,4.777-11.925,12.943l-0.091,3.729l33.932,0.262c0,0-3.553-3.473-3.553-6.049
		c0,0-0.35-2.143,1.076-3.283L51.719,60.027z"/>
	<path fill="#FFFFFF" d="M52.879,57.543c0.271-0.629,0.626-1.736,0.439-2.965c0,0-0.857-2.189,3.145-0.729c0,0,10,1.75,9.143-3.506
		c0,0-0.096-0.875-0.208-1.594c-0.026-0.162-0.175-0.547-0.274-0.709c-0.294-0.49-0.605-1.568,1.626-2.367
		c0,0,0.429-1.021-0.144-1.461c0,0,1.143-1.168,0.144-2.627c0,0-1.286-2.628,1.142-2.774c0,0,2.571,0,0.713-3.94
		c0,0-2.428-4.088-3.428-5.11c0,0-1.143-0.437-0.428-1.752c0,0,0.842-2.281,0.143-5.692c0,0-2.646-12.746-11.572-14.307
		c0,0-5.664-0.922-10.957-0.246c0,0-8.047,0.321-12.615,10.609c0,0-2.183,4.766,0.859,13.578c0,0,3.757,10.904,1.712,18.688
		c0,0-1.129,5.061-10.416,13.383l-0.073,3.602l30.264,0.275c0,0-1.061-3.541-1.061-6.166c0,0-0.355-2.186,1.098-3.348L52.879,57.543
		z"/>
	<path fill="#FFFFFF" d="M54.958,59.789c0.272-0.629,0.63-1.74,0.441-2.973c0,0-0.858-2.195,3.153-0.732c0,0,10.029,1.76,9.17-3.514
		c0,0-0.096-0.879-0.21-1.598c-0.025-0.164-0.175-0.547-0.271-0.713c-0.298-0.49-0.61-1.57,1.628-2.373c0,0,0.43-1.025-0.145-1.467
		c0,0,1.146-1.17,0.145-2.632c0,0-1.289-2.637,1.145-2.782c0,0,2.58,0,0.717-3.953c0,0-2.436-4.1-3.439-5.123
		c0,0-1.146-0.44-0.43-1.756c0,0,0.846-2.289,0.145-5.711c0,0-2.654-12.785-11.606-14.347c0,0-5.682-0.925-10.987-0.249
		c0,0-8.071,0.326-12.65,10.642c0,0-2.189,4.778,0.86,13.616c0,0,3.769,10.936,1.718,18.74c0,0-6.101,5.188-15.412,13.533
		l-0.089,3.783l35.333-0.012c0,0-1.062-3.547-1.062-6.182c0,0-0.358-2.189,1.1-3.352L54.958,59.789z"/>
	<path fill="#FFFFFF" d="M50.357,58.967c0.275-0.639,0.635-1.76,0.445-3.008c0,0-0.869-2.221,3.191-0.738
		c0,0,10.149,1.777,9.28-3.557c0,0-0.097-0.891-0.212-1.619c-0.025-0.164-0.177-0.555-0.277-0.721
		c-0.3-0.496-0.615-1.59,1.649-2.402c0,0,0.435-1.037-0.147-1.48c0,0,1.162-1.187,0.147-2.67c0,0-1.306-2.666,1.16-2.814
		c0,0,2.609,0,0.723-3.999c0,0-2.464-4.148-3.479-5.185c0,0-1.159-0.445-0.435-1.778c0,0,0.855-2.315,0.146-5.78
		c0,0-2.687-12.937-11.747-14.519c0,0-5.75-0.937-11.12-0.253c1.026-0.039-9.194,2.639-12.802,10.771c0,0-2.216,4.836,0.87,13.779
		c0,0,3.814,11.068,1.739,18.967c0,0-1.148,4.926-10.574,13.373l-0.074,3.867l30.718,0.273c0,0-1.076-3.586-1.076-6.254
		c0,0-0.361-2.219,1.113-3.396L50.357,58.967z"/>
	<path d="M52.528,59.178c0.269-0.615,0.616-1.701,0.433-2.908c0,0-0.839-2.148,3.086-0.713c0,0,9.812,1.719,8.971-3.439
		c0,0-0.094-0.861-0.205-1.564c-0.023-0.158-0.171-0.539-0.268-0.699c-0.289-0.479-0.596-1.535,1.595-2.32
		c0,0,0.421-1.002-0.143-1.434c0,0,1.123-1.146,0.143-2.578c0,0-1.263-2.576,1.121-2.723c0,0,2.521,0,0.7-3.866
		c0,0-2.383-4.01-3.365-5.013c0,0-1.119-0.429-0.419-1.719c0,0,0.827-2.238,0.14-5.586c0,0-2.596-12.506-11.355-14.035
		c0,0-5.557-0.904-10.75-0.244c0,0-7.896,0.318-12.376,10.41c0,0-2.143,4.678,0.84,13.324c0,0,3.688,10.699,1.683,18.332
		c0,0-1.111,4.764-10.221,12.928l-0.072,3.74l29.696,0.266c0,0-1.04-3.471-1.04-6.049c0,0-0.35-2.141,1.076-3.281L52.528,59.178z"/>
</g>
<circle fill="#FFFFFF" cx="62.052" cy="29.5" r="0.983"/>
<circle fill="#FFFFFF" cx="60.496" cy="25.24" r="0.982"/>
<circle fill="#FFFFFF" cx="59.268" cy="19.096" r="0.983"/>
<circle fill="#FFFFFF" cx="53.864" cy="15.738" r="0.983"/>
<circle fill="#FFFFFF" cx="48.785" cy="14.92" r="0.983"/>
<circle fill="#FFFFFF" cx="40.103" cy="14.592" r="0.983"/>
<circle fill="#FFFFFF" cx="38.218" cy="16.232" r="0.982"/>
<circle fill="#FFFFFF" cx="34.86" cy="18.197" r="0.983"/>
<circle fill="#FFFFFF" cx="32.403" cy="23.684" r="0.983"/>
<circle fill="#FFFFFF" cx="33.468" cy="36.625" r="0.983"/>
<circle fill="#FFFFFF" cx="42.887" cy="44.607" r="0.983"/>
<circle fill="#FFFFFF" cx="50.34" cy="41.375" r="0.984"/>
<circle fill="#FFFFFF" cx="54.683" cy="40.721" r="0.982"/>
<circle fill="#FFFFFF" cx="56.319" cy="37.444" r="0.983"/>
<g>

		<rect x="43.169" y="22.877" transform="matrix(-0.0145 0.9999 -0.9999 -0.0145 74.1064 -19.883)" fill="#EDEFEF" width="7.366" height="7.407"/>
	<g>
		<path fill="#FFFFFF" d="M50.786,29.546l0.082-5.814c0.009-0.608-0.478-1.112-1.089-1.12l-5.812-0.084
			c-0.614-0.01-1.115,0.481-1.125,1.09l-0.083,5.812c-0.009,0.612,0.48,1.116,1.094,1.125l5.813,0.082
			C50.274,30.647,50.777,30.156,50.786,29.546L50.786,29.546z M43.117,29.437l0.084-5.815c0.004-0.409,0.346-0.74,0.76-0.736
			l5.813,0.084c0.411,0.004,0.745,0.346,0.738,0.758l-0.081,5.813c-0.008,0.415-0.35,0.746-0.762,0.741l-5.812-0.083
			C43.443,30.192,43.111,29.85,43.117,29.437L43.117,29.437z M43.117,29.437"/>
		<path fill="#FFFFFF" d="M49.026,31.248l-0.015,1.07c-0.001,0.098,0.078,0.182,0.176,0.183s0.182-0.079,0.182-0.175l0.016-1.073
			c0.002-0.099-0.08-0.179-0.178-0.181C49.11,31.07,49.029,31.149,49.026,31.248L49.026,31.248z M49.026,31.248"/>
		<path fill="#FFFFFF" d="M48.395,32.31l0.014-1.071c0.002-0.099-0.075-0.18-0.174-0.182c-0.102,0-0.182,0.08-0.182,0.176
			l-0.016,1.072c-0.001,0.098,0.077,0.183,0.176,0.184C48.312,32.49,48.393,32.409,48.395,32.31L48.395,32.31z M48.395,32.31"/>
		<path fill="#FFFFFF" d="M47.398,32.297l0.018-1.07c0-0.102-0.078-0.182-0.178-0.185c-0.094-0.001-0.18,0.08-0.18,0.179
			l-0.016,1.07c-0.002,0.098,0.076,0.181,0.175,0.182C47.318,32.474,47.398,32.396,47.398,32.297L47.398,32.297z M47.398,32.297"/>
		<path fill="#FFFFFF" d="M46.426,32.282l0.015-1.071c0.001-0.099-0.079-0.18-0.177-0.182c-0.1-0.002-0.18,0.078-0.18,0.176
			l-0.017,1.072c-0.001,0.098,0.077,0.182,0.177,0.184C46.342,32.461,46.424,32.38,46.426,32.282L46.426,32.282z M46.426,32.282"/>
		<path fill="#FFFFFF" d="M45.525,32.27l0.016-1.072c0.001-0.097-0.076-0.18-0.178-0.182c-0.098,0-0.18,0.079-0.182,0.177
			l-0.014,1.073c-0.002,0.097,0.076,0.18,0.176,0.181S45.524,32.367,45.525,32.27L45.525,32.27z M45.525,32.27"/>
		<path fill="#FFFFFF" d="M44.55,32.255l0.017-1.071c0.002-0.097-0.076-0.181-0.178-0.181c-0.096-0.001-0.182,0.077-0.184,0.177
			l-0.016,1.07c-0.001,0.098,0.082,0.182,0.18,0.185C44.469,32.436,44.55,32.352,44.55,32.255L44.55,32.255z M44.55,32.255"/>
		<path fill="#FFFFFF" d="M49.519,21.751l0.016-1.069c0.002-0.098-0.079-0.182-0.177-0.182c-0.097-0.002-0.178,0.077-0.182,0.177
			l-0.014,1.069c-0.002,0.102,0.078,0.181,0.176,0.181C49.436,21.929,49.518,21.852,49.519,21.751L49.519,21.751z M49.519,21.751"/>
		<path fill="#FFFFFF" d="M48.545,21.736l0.014-1.068c0.002-0.098-0.076-0.18-0.176-0.182c-0.098-0.003-0.178,0.078-0.18,0.177
			l-0.014,1.068c-0.003,0.102,0.075,0.182,0.174,0.184C48.464,21.915,48.542,21.837,48.545,21.736L48.545,21.736z M48.545,21.736"/>
		<path fill="#FFFFFF" d="M47.549,21.724l0.016-1.07c0.001-0.098-0.076-0.181-0.175-0.182c-0.097-0.001-0.18,0.077-0.181,0.177
			l-0.015,1.069c-0.003,0.101,0.075,0.181,0.173,0.182C47.469,21.902,47.549,21.824,47.549,21.724L47.549,21.724z M47.549,21.724"/>
		<path fill="#FFFFFF" d="M46.576,21.708l0.014-1.068c0.002-0.099-0.078-0.181-0.176-0.182c-0.1-0.001-0.178,0.079-0.18,0.177
			l-0.016,1.068c-0.002,0.102,0.075,0.181,0.175,0.183C46.492,21.888,46.574,21.81,46.576,21.708L46.576,21.708z M46.576,21.708"/>
		<path fill="#FFFFFF" d="M45.677,21.696l0.015-1.069c0.002-0.098-0.077-0.18-0.178-0.182c-0.099-0.002-0.18,0.078-0.181,0.177
			l-0.015,1.069c-0.002,0.102,0.077,0.181,0.175,0.182C45.594,21.875,45.676,21.797,45.677,21.696L45.677,21.696z M45.677,21.696"/>
		<path fill="#FFFFFF" d="M44.701,21.684l0.016-1.07c0-0.098-0.078-0.181-0.177-0.183c-0.098-0.001-0.183,0.077-0.184,0.179
			l-0.016,1.068c-0.001,0.1,0.081,0.179,0.179,0.181C44.619,21.859,44.701,21.783,44.701,21.684L44.701,21.684z M44.701,21.684"/>
		<path fill="#FFFFFF" d="M42.119,28.924c0.002-0.096-0.077-0.176-0.177-0.178l-1.069-0.016c-0.1-0.001-0.18,0.078-0.181,0.175
			c-0.001,0.101,0.077,0.18,0.176,0.181l1.068,0.017C42.035,29.104,42.117,29.027,42.119,28.924L42.119,28.924z M42.119,28.924"/>
		<path fill="#FFFFFF" d="M42.133,27.949c0.002-0.097-0.076-0.18-0.177-0.181l-1.068-0.017c-0.1-0.002-0.18,0.082-0.182,0.178
			c-0.001,0.1,0.076,0.184,0.176,0.185l1.07,0.016C42.051,28.131,42.131,28.051,42.133,27.949L42.133,27.949z M42.133,27.949"/>
		<path fill="#FFFFFF" d="M42.147,26.957c0.001-0.096-0.077-0.181-0.177-0.182l-1.07-0.016c-0.1-0.002-0.179,0.081-0.183,0.176
			c0,0.101,0.078,0.182,0.177,0.184l1.068,0.016C42.064,27.136,42.146,27.057,42.147,26.957L42.147,26.957z M42.147,26.957"/>
		<path fill="#FFFFFF" d="M42.161,25.983c0.001-0.1-0.078-0.183-0.176-0.183l-1.069-0.016c-0.1,0-0.182,0.079-0.182,0.177
			c-0.002,0.099,0.077,0.181,0.176,0.183l1.07,0.014C42.078,26.16,42.16,26.081,42.161,25.983L42.161,25.983z M42.161,25.983"/>
		<path fill="#FFFFFF" d="M42.174,25.083c0.002-0.098-0.078-0.183-0.177-0.183l-1.068-0.018c-0.102-0.001-0.181,0.079-0.182,0.18
			c-0.003,0.1,0.076,0.178,0.175,0.18l1.07,0.016C42.09,25.26,42.173,25.182,42.174,25.083L42.174,25.083z M42.174,25.083"/>
		<path fill="#FFFFFF" d="M42.188,24.107c0.002-0.098-0.076-0.18-0.176-0.181l-1.07-0.015c-0.1-0.002-0.181,0.078-0.182,0.176
			c-0.002,0.1,0.077,0.18,0.175,0.182l1.071,0.016C42.105,24.286,42.188,24.207,42.188,24.107L42.188,24.107z M42.188,24.107"/>
		<path fill="#FFFFFF" d="M51.264,29.054c-0.003,0.103,0.078,0.183,0.174,0.183l1.072,0.016c0.1,0.002,0.184-0.075,0.184-0.176
			c0.002-0.098-0.079-0.178-0.178-0.18l-1.072-0.016C51.346,28.879,51.265,28.957,51.264,29.054L51.264,29.054z M51.264,29.054"/>
		<path fill="#FFFFFF" d="M51.277,28.08c-0.004,0.102,0.078,0.184,0.176,0.185l1.071,0.014c0.099,0.002,0.182-0.077,0.183-0.179
			c0.002-0.096-0.079-0.181-0.178-0.182l-1.071-0.016C51.36,27.901,51.279,27.984,51.277,28.08L51.277,28.08z M51.277,28.08"/>
		<path fill="#FFFFFF" d="M51.289,27.088c0,0.1,0.081,0.18,0.178,0.181l1.071,0.017c0.099,0.001,0.183-0.078,0.185-0.178
			c0-0.096-0.08-0.18-0.179-0.181l-1.071-0.017C51.375,26.909,51.291,26.991,51.289,27.088L51.289,27.088z M51.289,27.088"/>
		<path fill="#FFFFFF" d="M51.305,26.113c0,0.098,0.078,0.18,0.175,0.182l1.071,0.014c0.098,0.001,0.184-0.076,0.184-0.174
			c0.003-0.1-0.078-0.181-0.176-0.184l-1.072-0.016C51.389,25.936,51.307,26.014,51.305,26.113L51.305,26.113z M51.305,26.113"/>
		<path fill="#FFFFFF" d="M51.316,25.213c0,0.098,0.08,0.178,0.178,0.18l1.071,0.016c0.098,0.002,0.181-0.076,0.182-0.174
			s-0.079-0.183-0.178-0.185L51.5,25.035C51.402,25.034,51.317,25.115,51.316,25.213L51.316,25.213z M51.316,25.213"/>
		<path fill="#FFFFFF" d="M51.332,24.239c-0.004,0.098,0.078,0.181,0.176,0.181l1.07,0.016c0.099,0.002,0.182-0.078,0.185-0.176
			c0.001-0.1-0.082-0.182-0.179-0.184l-1.07-0.014C51.414,24.061,51.332,24.141,51.332,24.239L51.332,24.239z M51.332,24.239"/>
		<path fill="#FFFFFF" d="M45.086,24.728l-0.051,3.701l3.735,0.054l0.052-3.701L45.086,24.728z M48.391,28.09l-2.965-0.042
			l0.041-2.93l2.967,0.044L48.391,28.09z M48.391,28.09"/>
		<radialGradient id="SVGID_1_" cx="46.7617" cy="26.4424" r="2.4096" gradientUnits="userSpaceOnUse">
			<stop  offset="0.5255" style="stop-color:#262261"/>
			<stop  offset="0.8721" style="stop-color:#2E3191"/>
			<stop  offset="1" style="stop-color:#2E3191;stop-opacity:0.6"/>
		</radialGradient>
		<polygon fill="url(#SVGID_1_)" points="44.308,28.736 44.373,24.078 49.216,24.148 49.148,28.807 		"/>
	</g>
</g>
<g>
	<polygon fill="#FFFFFF" points="45.623,22.527 45.762,18.381 48.295,18.197 48.342,15.801 48.848,15.756 48.848,18.75
		46.223,18.889 46.176,22.619 	"/>
	<polygon fill="#FFFFFF" points="53.193,15.803 49.447,18.98 49.4,22.619 49.954,22.712 49.954,19.211 53.377,16.264 	"/>
	<polygon fill="#FFFFFF" points="50.599,23.265 54.699,23.357 58.537,19.305 58.812,19.673 54.93,23.817 50.645,23.771 	"/>
	<polygon fill="#FFFFFF" points="50.646,24.969 59.85,24.924 59.803,25.43 50.599,25.43 	"/>
	<polygon fill="#FFFFFF" points="50.599,26.95 50.553,27.457 55.436,27.596 57.002,29.668 61.148,29.76 62.057,29.207
		57.232,29.162 55.713,27.135 	"/>
	<polygon fill="#FFFFFF" points="50.566,29.071 56.325,34.277 56.418,36.903 55.91,36.857 55.818,34.554 50.475,29.717 	"/>
	<polygon fill="#FFFFFF" points="50.23,30.359 50.184,33.999 52.948,36.303 52.856,38.744 54.344,40.127 53.976,40.496
		52.35,38.928 52.396,36.486 49.724,34.275 49.77,30.405 	"/>
	<polygon fill="#FFFFFF" points="47.742,30.451 47.927,35.795 50.507,37.961 50.507,40.449 49.954,40.494 49.954,38.237
		47.374,35.98 47.236,30.313 	"/>
	<polygon fill="#FFFFFF" points="45.577,30.313 45.485,36.164 43.136,38.56 43.136,43.72 42.583,43.812 42.583,38.283
		44.979,35.888 44.979,30.313 	"/>
	<polygon fill="#FFFFFF" points="44.104,30.359 44.149,33.814 41.293,37.039 33.968,36.947 33.876,36.256 34.198,36.395
		41.017,36.486 43.597,33.631 43.551,30.406 	"/>
	<polygon fill="#FFFFFF" points="43.012,30.039 37.423,29.854 37.147,23.91 33.047,23.863 33.047,23.266 37.607,23.357
		37.93,29.346 42.852,29.477 	"/>
	<polygon fill="#FFFFFF" points="43.104,28.841 38.805,28.747 38.575,22.574 35.12,19.072 35.534,18.75 39.082,22.39 39.266,28.24
		43.057,28.38 	"/>
	<polygon fill="#FFFFFF" points="42.859,23.817 40.049,23.817 39.727,18.336 38.437,16.953 38.759,16.539 40.279,18.105
		40.556,23.311 42.859,23.311 	"/>
	<polygon fill="#FFFFFF" points="43.551,22.574 43.551,18.612 40.464,15.434 40.786,14.927 44.104,18.52 44.104,22.528 	"/>
</g>
<path fill="#EBA327" d="M49.173,7.507c0,0,6.958,0.001,12.915,6.658l-3.354-5.707l-4.255-2.202h-4.905L49.173,7.507z"/>
</svg>
