<?xml version="1.0" encoding="utf-8"?>
<!-- Generator: Adobe Illustrator 16.0.4, SVG Export Plug-In . SVG Version: 6.00 Build 0)  -->
<!DOCTYPE svg PUBLIC "-//W3C//DTD SVG 1.1//EN" "http://www.w3.org/Graphics/SVG/1.1/DTD/svg11.dtd">
<svg version="1.1" id="Layer_1" xmlns="http://www.w3.org/2000/svg" xmlns:xlink="http://www.w3.org/1999/xlink" x="0px" y="0px"
	 width="1247.255px" height="1238.472px" viewBox="0 0 1247.255 1238.472" enable-background="new 0 0 1247.255 1238.472"
	 xml:space="preserve">
<g>
	<path fill="#070406" d="M1241.527,622.07c0,341.071-276.505,617.56-617.55,617.56c-341.076,0-617.574-276.488-617.574-617.56
		c0-341.068,276.498-617.565,617.574-617.565C965.022,4.505,1241.527,281.002,1241.527,622.07z"/>
	<path fill="#ECA427" d="M1209.897,622.07c0,323.61-262.334,585.935-585.92,585.935c-323.609,0-585.951-262.324-585.951-585.935
		c0-323.604,262.342-585.939,585.951-585.939C947.563,36.131,1209.897,298.466,1209.897,622.07z"/>
	<g>
		<path fill="#ECA427" d="M819.992,913.073c4.278-9.762,9.807-27.083,6.901-46.263c0,0-13.365-34.148,49.074-11.355
			c0,0,156.096,27.35,142.699-54.691c0,0-1.473-13.699-3.242-24.896c-0.399-2.508-2.723-8.559-4.271-11.088
			c-4.594-7.633-9.471-24.461,25.365-36.961c0,0,6.709-15.934-2.232-22.773c0,0,17.828-18.242,2.232-41.034
			c0,0-20.074-40.993,17.82-43.293c0,0,40.133,0,11.141-61.531c0,0-37.895-63.785-53.498-79.708c0,0-17.828-6.859-6.688-27.355
			c0,0,13.151-35.633,2.217-88.844c0,0-41.299-199.028-180.617-223.332c0,0-88.434-14.408-171.018-3.856
			c0,0-125.646,5.064-196.889,165.63c0,0-34.084,74.39,13.38,211.934c0,0,58.645,170.23,26.746,291.656
			c0,0-18.142,76-163.081,205.871l-1.457,59.369l513.16,4.137c0,0-56.498-55.193-56.498-96.197c0,0-5.566-34.078,17.123-52.227
			L819.992,913.073z"/>
		<path fill="#ECA427" d="M819.57,901.798c4.264-9.783,9.792-27.058,6.894-46.255c0,0-13.373-34.166,49.066-11.375
			c0,0,156.096,27.34,142.715-54.691c0,0-1.486-13.664-3.25-24.902c-0.398-2.506-2.746-8.537-4.271-11.109
			c-4.586-7.617-9.47-24.43,25.381-36.898c0,0,6.663-15.965-2.262-22.801c0,0,17.85-18.246,2.262-41.024
			c0,0-20.098-41.011,17.843-43.269c0,0,40.088,0,11.134-61.54c0,0-37.902-63.801-53.537-79.739c0,0-17.836-6.851-6.671-27.358
			c0,0,13.144-35.63,2.224-88.864c0,0-41.315-198.97-180.633-223.309c0,0-88.435-14.389-171.025-3.865
			c0,0-125.631,5.069-196.904,165.635c0,0-34.061,74.378,13.365,211.933c0,0,58.676,170.2,26.784,291.672
			c0,0-17.667,75.779-162.605,205.671l-1.135,59.463l472.412,4.242c0,0-16.54-55.195-16.54-96.209c0,0-5.582-34.115,17.084-52.215
			L819.57,901.798z"/>
		<path fill="#ECA427" d="M770.825,891.726c3.98-9.098,9.102-25.171,6.388-43c0,0-12.423-31.738,45.601-10.531
			c0,0,145.039,25.385,132.602-50.857c0,0-1.388-12.709-3.037-23.108c-0.353-2.339-2.507-7.95-3.948-10.322
			c-4.287-7.08-8.812-22.703,23.563-34.277c0,0,6.226-14.836-2.086-21.207c0,0,16.57-16.948,2.086-38.079
			c0,0-18.641-38.113,16.594-40.26c0,0,37.266,0,10.328-57.168c0,0-35.219-59.242-49.711-74.057c0,0-16.594-6.355-6.242-25.411
			c0,0,12.246-33.103,2.086-82.565c0,0-38.379-184.854-167.835-207.461c0,0-82.146-13.377-158.894-3.613
			c0,0-116.708,4.717-182.927,153.903c0,0-31.638,69.104,12.438,196.9c0,0,54.503,158.139,24.844,270.985
			c0,0-41.591,70.609-176.239,191.292l-1.35,55.11l501.527,3.884c0,0-52.51-51.33-52.51-89.404c0,0-5.168-31.684,15.904-48.542
			L770.825,891.726z"/>
		<path fill="#FFFFFF" d="M787.978,855.006c4.011-9.278,9.247-25.649,6.494-43.817c0,0-12.667-32.368,46.476-10.773
			c0,0,147.807,25.879,135.14-51.812c0,0-1.427-12.928-3.075-23.549c-0.391-2.4-2.584-8.094-4.065-10.487
			c-4.34-7.234-8.947-23.168,24.039-35c0,0,6.334-15.082-2.123-21.588c0,0,16.892-17.265,2.123-38.815
			c0,0-19.008-38.853,16.87-41.012c0,0,38.009,0,10.536-58.249c0,0-35.887-60.412-50.662-75.528c0,0-16.885-6.454-6.326-25.896
			c0,0,12.452-33.719,2.116-84.136c0,0-39.122-188.403-171.049-211.465c0,0-83.718-13.625-161.954-3.634
			c0,0-118.928,4.75-186.451,156.824c0,0-32.244,70.437,12.697,200.669c0,0,55.531,161.186,25.32,276.216
			c0,0-16.701,74.812-153.957,197.819l-1.059,53.236l447.3,4.055c0,0-15.673-52.34-15.673-91.121c0,0-5.253-32.324,16.225-49.48
			L787.978,855.006z"/>
		<path fill="#FFFFFF" d="M818.712,888.214c4.025-9.292,9.309-25.732,6.518-43.927c0,0-12.684-32.452,46.613-10.844
			c0,0,148.235,26.006,135.53-51.934c0,0-1.411-12.975-3.099-23.621c-0.383-2.404-2.592-8.081-4.018-10.518
			c-4.394-7.242-9.018-23.221,24.062-35.092c0,0,6.349-15.137-2.14-21.662c0,0,16.955-17.29,2.14-38.917
			c0,0-19.062-38.967,16.923-41.115c0,0,38.133,0,10.59-58.43c0,0-35.992-60.592-50.83-75.717c0,0-16.938-6.518-6.357-25.959
			c0,0,12.499-33.831,2.146-84.412c0,0-39.244-188.968-171.561-212.048c0,0-83.979-13.676-162.391-3.685
			c0,0-119.299,4.819-186.982,157.288c0,0-32.358,70.629,12.721,201.268c0,0,55.699,161.636,25.396,276.98
			c0,0-90.182,76.673-227.813,200.039l-1.319,55.902l522.246-0.172c0,0-15.696-52.41-15.696-91.351c0,0-5.306-32.364,16.249-49.552
			L818.712,888.214z"/>
		<path fill="#FFFFFF" d="M750.712,876.07c4.072-9.448,9.379-26.03,6.58-44.475c0,0-12.852-32.822,47.172-10.914
			c0,0,150.016,26.27,137.164-52.573c0,0-1.426-13.15-3.129-23.915c-0.375-2.445-2.621-8.203-4.109-10.658
			c-4.424-7.346-9.079-23.49,24.383-35.521c0,0,6.426-15.31-2.177-21.872c0,0,17.177-17.537,2.177-39.463
			c0,0-19.291-39.397,17.146-41.591c0,0,38.57,0,10.689-59.119c0,0-36.424-61.312-51.414-76.618c0,0-17.137-6.583-6.426-26.293
			c0,0,12.645-34.226,2.156-85.427c0,0-39.721-191.215-173.633-214.599c0,0-84.984-13.833-164.339-3.742
			c15.151-0.582-135.906,39.015-189.229,159.213c0,0-32.757,71.481,12.837,203.66c0,0,56.381,163.605,25.732,280.334
			c0,0-16.984,72.81-156.303,197.662l-1.104,57.176l454.047,4.025c0,0-15.902-52.984-15.902-92.421c0,0-5.346-32.796,16.447-50.213
			L750.712,876.07z"/>
		<path fill="#010101" d="M782.795,879.188c3.972-9.11,9.11-25.153,6.403-42.982c0,0-12.407-31.776,45.601-10.559
			c0,0,145.038,25.409,132.594-50.83c0,0-1.381-12.725-3.036-23.131c-0.338-2.347-2.516-7.967-3.941-10.32
			c-4.279-7.093-8.803-22.701,23.556-34.314c0,0,6.233-14.799-2.103-21.168c0,0,16.602-16.953,2.103-38.124
			c0,0-18.656-38.072,16.577-40.23c0,0,37.266,0,10.352-57.149c0,0-35.227-59.266-49.734-74.083c0,0-16.547-6.349-6.203-25.404
			c0,0,12.23-33.098,2.071-82.56c0,0-38.362-184.847-167.835-207.452c0,0-82.146-13.38-158.902-3.607
			c0,0-116.705,4.708-182.926,153.859c0,0-31.668,69.142,12.422,196.931c0,0,54.504,158.14,24.875,270.981
			c0,0-16.418,70.39-151.073,191.055l-1.059,55.301l438.919,3.927c0,0-15.374-51.314-15.374-89.412c0,0-5.168-31.649,15.903-48.496
			L782.795,879.188z"/>
	</g>
	<g>
		
			<line fill="none" stroke="#FFFFFF" stroke-width="6" stroke-miterlimit="10" x1="750.46" y1="377.567" x2="888.467" y2="377.567"/>
		<polyline fill="none" stroke="#FFFFFF" stroke-width="6" stroke-miterlimit="10" points="744.409,352.148 818.259,353.354 
			875.163,292.807 		"/>
		<polyline fill="none" stroke="#FFFFFF" stroke-width="6" stroke-miterlimit="10" points="748.489,407.082 829.171,409.026 
			852.159,439.309 907.843,440.525 		"/>
		<polyline fill="none" stroke="#FFFFFF" stroke-width="6" stroke-miterlimit="10" points="751.801,429.299 837.635,507.098 
			838.84,549.467 		"/>
		<polyline fill="none" stroke="#FFFFFF" stroke-width="6" stroke-miterlimit="10" points="746.84,453.818 746.84,509.528 
			786.766,542.201 785.579,578.528 807.363,600.289 		"/>
		<polyline fill="none" stroke="#FFFFFF" stroke-width="6" stroke-miterlimit="10" points="710.51,446.56 712.94,534.932 
			750.46,567.625 750.46,609.986 		"/>
		<polyline fill="none" stroke="#FFFFFF" stroke-width="6" stroke-miterlimit="10" points="677.837,446.56 676.618,537.358 
			641.507,572.471 641.507,668.354 		"/>
		<polyline fill="none" stroke="#FFFFFF" stroke-width="6" stroke-miterlimit="10" points="656.036,446.56 657.271,503.464 
			616.102,548.248 508.33,547.044 		"/>
		<polyline fill="none" stroke="#FFFFFF" stroke-width="6" stroke-miterlimit="10" points="643.928,445.352 565.241,442.933 
			560.411,354.556 492.602,353.354 		"/>
		<polyline fill="none" stroke="#FFFFFF" stroke-width="6" stroke-miterlimit="10" points="640.325,429.621 584.634,425.982 
			582.186,336.407 524.065,277.083 		"/>
		<polyline fill="none" stroke="#FFFFFF" stroke-width="6" stroke-miterlimit="10" points="639.635,353.567 603.995,353.354 
			599.134,273.449 572.541,246.822 		"/>
		<polyline fill="none" stroke="#FFFFFF" stroke-width="6" stroke-miterlimit="10" points="656.167,342.732 656.036,279.5 
			602.776,223.83 		"/>
		<polyline fill="none" stroke="#FFFFFF" stroke-width="6" stroke-miterlimit="10" points="686.286,346.079 687.52,279.5 
			726.245,278.296 726.245,227.442 		"/>
		<polyline fill="none" stroke="#FFFFFF" stroke-width="6" stroke-miterlimit="10" points="742.094,343.986 743.19,286.761 
			796.466,238.354 		"/>
		<path fill="#FFFFFF" d="M938.093,440.518c0,8.012-6.494,14.534-14.522,14.534c-8.021,0-14.532-6.522-14.532-14.534
			c0-8.033,6.511-14.535,14.532-14.535C931.598,425.982,938.093,432.485,938.093,440.518z"/>
		<path fill="#FFFFFF" d="M915.081,377.567c0,8.024-6.471,14.52-14.499,14.52s-14.538-6.496-14.538-14.52
			c0-8.039,6.51-14.539,14.538-14.539S915.081,369.528,915.081,377.567z"/>
		<path fill="#FFFFFF" d="M896.939,286.75c0,8.043-6.519,14.545-14.515,14.545c-8.045,0-14.539-6.502-14.539-14.545
			c0-8.002,6.494-14.508,14.539-14.508C890.421,272.242,896.939,278.748,896.939,286.75z"/>
		<path fill="#FFFFFF" d="M817.071,237.119c0,8.027-6.549,14.538-14.555,14.538c-8.021,0-14.508-6.511-14.508-14.538
			c0-8.01,6.487-14.513,14.508-14.513C810.522,222.606,817.071,229.109,817.071,237.119z"/>
		<path fill="#FFFFFF" d="M742.003,225.022c0,8.032-6.535,14.522-14.539,14.522c-8.036,0-14.523-6.49-14.523-14.522
			c0-8.043,6.487-14.535,14.523-14.535C735.468,210.487,742.003,216.979,742.003,225.022z"/>
		<path fill="#FFFFFF" d="M613.672,220.172c0,8.025-6.519,14.54-14.538,14.54c-7.998,0-14.5-6.515-14.5-14.54
			c0-8.012,6.502-14.519,14.5-14.519C607.153,205.653,613.672,212.16,613.672,220.172z"/>
		<path fill="#FFFFFF" d="M585.798,244.411c0,8.009-6.479,14.519-14.499,14.519c-8.028,0-14.538-6.51-14.538-14.519
			c0-8.033,6.51-14.558,14.538-14.558C579.319,229.854,585.798,236.378,585.798,244.411z"/>
		<path fill="#FFFFFF" d="M536.165,273.449c0,8.013-6.488,14.527-14.492,14.527c-8.053,0-14.555-6.514-14.555-14.527
			c0-8.028,6.502-14.519,14.555-14.519C529.677,258.93,536.165,265.42,536.165,273.449z"/>
		<path fill="#FFFFFF" d="M499.872,354.556c0,8.01-6.525,14.519-14.516,14.519c-8.051,0-14.554-6.509-14.554-14.519
			c0-8.021,6.503-14.515,14.554-14.515C493.346,340.042,499.872,346.536,499.872,354.556z"/>
		<path fill="#FFFFFF" d="M515.614,545.829c0,8.036-6.502,14.557-14.538,14.557c-8.052,0-14.538-6.521-14.538-14.557
			c0-8.018,6.486-14.528,14.538-14.528C509.112,531.301,515.614,537.812,515.614,545.829z"/>
		<path fill="#FFFFFF" d="M654.833,663.814c0,8.019-6.518,14.527-14.508,14.527c-8.043,0-14.554-6.508-14.554-14.527
			c0-8.027,6.511-14.497,14.554-14.497C648.315,649.318,654.833,655.787,654.833,663.814z"/>
		<path fill="#FFFFFF" d="M765.005,616.043c0,8.028-6.51,14.547-14.545,14.547c-8.006,0-14.547-6.519-14.547-14.547
			c0-8.005,6.541-14.523,14.547-14.523C758.495,601.521,765.005,608.039,765.005,616.043z"/>
		<path fill="#FFFFFF" d="M829.155,606.371c0,8.032-6.51,14.53-14.531,14.53c-8.027,0-14.508-6.498-14.508-14.53
			c0-8.021,6.48-14.53,14.508-14.53C822.645,591.84,829.155,598.349,829.155,606.371z"/>
		<path fill="#FFFFFF" d="M853.363,557.943c0,8.036-6.487,14.528-14.523,14.528c-8.021,0-14.546-6.492-14.546-14.528
			c0-8.021,6.525-14.519,14.546-14.519C846.876,543.424,853.363,549.923,853.363,557.943z"/>
		<g>
			<polygon fill="#EDEFEF" points="643.378,451.029 644.956,342.157 754.424,343.703 752.875,452.591 			"/>
			<g>
				<path fill="#FFFFFF" d="M757.046,441.196l1.212-85.938c0.13-8.991-7.054-16.44-16.103-16.567l-85.903-1.223
					c-9.079-0.152-16.479,7.109-16.616,16.099l-1.242,85.922c-0.123,9.04,7.115,16.486,16.164,16.624l85.941,1.212
					C749.485,457.479,756.915,450.217,757.046,441.196L757.046,441.196z M643.7,439.582l1.242-85.954
					c0.053-6.049,5.105-10.95,11.225-10.896l85.928,1.254c6.072,0.058,11.01,5.11,10.91,11.203l-1.204,85.919
					c-0.106,6.138-5.167,11.03-11.256,10.95l-85.896-1.22C648.514,450.75,643.607,445.694,643.7,439.582L643.7,439.582z
					 M643.7,439.582"/>
				<path fill="#FFFFFF" d="M731.037,466.354l-0.216,15.818c-0.016,1.454,1.15,2.688,2.592,2.701
					c1.441,0.022,2.684-1.174,2.684-2.589l0.23-15.857c0.031-1.464-1.172-2.646-2.614-2.676
					C732.278,463.721,731.082,464.897,731.037,466.354L731.037,466.354z M731.037,466.354"/>
				<path fill="#FFFFFF" d="M721.698,482.042l0.205-15.822c0.023-1.465-1.111-2.661-2.568-2.696c-1.502,0-2.691,1.178-2.691,2.607
					l-0.222,15.843c-0.016,1.433,1.134,2.702,2.591,2.713C720.477,484.708,721.667,483.524,721.698,482.042L721.698,482.042z
					 M721.698,482.042"/>
				<path fill="#FFFFFF" d="M706.973,481.851l0.262-15.818c0-1.503-1.15-2.679-2.631-2.723c-1.387-0.016-2.66,1.185-2.66,2.634
					l-0.223,15.838c-0.029,1.441,1.119,2.661,2.584,2.675C705.786,484.47,706.973,483.316,706.973,481.851L706.973,481.851z
					 M706.973,481.851"/>
				<path fill="#FFFFFF" d="M692.597,481.644l0.222-15.841c0.016-1.454-1.18-2.646-2.621-2.688
					c-1.473-0.015-2.654,1.162-2.654,2.607l-0.245,15.846c-0.015,1.437,1.142,2.69,2.614,2.707
					C691.354,484.282,692.567,483.082,692.597,481.644L692.597,481.644z M692.597,481.644"/>
				<path fill="#FFFFFF" d="M679.294,481.452l0.223-15.838c0.015-1.442-1.112-2.672-2.615-2.684c-1.441-0.008-2.668,1.158-2.699,2.6
					l-0.199,15.857c-0.023,1.438,1.127,2.664,2.606,2.683C678.074,484.086,679.278,482.898,679.294,481.452L679.294,481.452z
					 M679.294,481.452"/>
				<path fill="#FFFFFF" d="M664.862,481.241l0.253-15.837c0.038-1.427-1.128-2.669-2.63-2.669c-1.41-0.023-2.684,1.136-2.707,2.607
					l-0.237,15.823c-0.015,1.444,1.22,2.684,2.661,2.729C663.675,483.902,664.862,482.674,664.862,481.241L664.862,481.241z
					 M664.862,481.241"/>
				<path fill="#FFFFFF" d="M738.305,325.988l0.23-15.818c0.029-1.426-1.158-2.668-2.607-2.68c-1.426-0.015-2.622,1.142-2.684,2.614
					l-0.199,15.804c-0.031,1.503,1.15,2.676,2.592,2.676C737.079,328.612,738.29,327.478,738.305,325.988L738.305,325.988z
					 M738.305,325.988"/>
				<path fill="#FFFFFF" d="M723.921,325.774l0.207-15.804c0.023-1.441-1.127-2.641-2.6-2.687c-1.441-0.034-2.637,1.158-2.66,2.623
					l-0.207,15.792c-0.031,1.499,1.119,2.68,2.576,2.71C722.718,328.409,723.875,327.258,723.921,325.774L723.921,325.774z
					 M723.921,325.774"/>
				<path fill="#FFFFFF" d="M709.198,325.583l0.23-15.82c0.016-1.444-1.127-2.668-2.584-2.688c-1.419-0.019-2.661,1.143-2.676,2.619
					l-0.215,15.795c-0.031,1.496,1.119,2.677,2.561,2.692C708.017,328.217,709.198,327.059,709.198,325.583L709.198,325.583z
					 M709.198,325.583"/>
				<path fill="#FFFFFF" d="M694.821,325.349l0.199-15.792c0.03-1.456-1.158-2.664-2.6-2.679c-1.473-0.02-2.621,1.157-2.652,2.609
					l-0.23,15.796c-0.031,1.496,1.111,2.661,2.584,2.696C693.579,328.006,694.79,326.854,694.821,325.349L694.821,325.349z
					 M694.821,325.349"/>
				<path fill="#FFFFFF" d="M681.532,325.173l0.215-15.796c0.031-1.457-1.15-2.672-2.629-2.687
					c-1.457-0.023-2.662,1.149-2.677,2.609l-0.215,15.805c-0.03,1.5,1.149,2.672,2.584,2.684
					C680.298,327.818,681.516,326.668,681.532,325.173L681.532,325.173z M681.532,325.173"/>
				<path fill="#FFFFFF" d="M667.102,324.982l0.244-15.804c0-1.453-1.165-2.68-2.622-2.707c-1.442-0.015-2.7,1.146-2.714,2.646
					l-0.23,15.788c-0.016,1.46,1.195,2.642,2.645,2.668C665.897,327.591,667.102,326.458,667.102,324.982L667.102,324.982z
					 M667.102,324.982"/>
				<path fill="#FFFFFF" d="M628.946,432.013c0.03-1.425-1.135-2.613-2.63-2.63l-15.788-0.245c-1.473-0.008-2.661,1.161-2.684,2.592
					c-0.016,1.491,1.134,2.656,2.592,2.672l15.795,0.245C627.704,434.659,628.915,433.528,628.946,432.013L628.946,432.013z
					 M628.946,432.013"/>
				<path fill="#FFFFFF" d="M629.145,417.601c0.031-1.43-1.119-2.664-2.623-2.676l-15.795-0.241
					c-1.473-0.034-2.654,1.204-2.684,2.626c-0.016,1.468,1.119,2.707,2.592,2.731l15.826,0.229
					C627.934,420.274,629.114,419.093,629.145,417.601L629.145,417.601z M629.145,417.601"/>
				<path fill="#FFFFFF" d="M629.36,402.933c0.016-1.411-1.135-2.673-2.607-2.68l-15.818-0.233c-1.48-0.023-2.646,1.2-2.691,2.596
					c-0.016,1.488,1.135,2.692,2.614,2.714l15.788,0.222C628.134,405.575,629.344,404.405,629.36,402.933L629.36,402.933z
					 M629.36,402.933"/>
				<path fill="#FFFFFF" d="M629.559,388.544c0.016-1.476-1.15-2.694-2.607-2.71l-15.795-0.226c-1.48,0-2.684,1.173-2.691,2.618
					c-0.055,1.45,1.142,2.67,2.605,2.7l15.805,0.203C628.333,391.147,629.544,389.989,629.559,388.544L629.559,388.544z
					 M629.559,388.544"/>
				<path fill="#FFFFFF" d="M629.751,375.229c0.023-1.438-1.15-2.683-2.607-2.7l-15.795-0.249c-1.511-0.019-2.66,1.162-2.691,2.662
					c-0.031,1.465,1.119,2.625,2.592,2.646l15.818,0.237C628.509,377.836,629.735,376.69,629.751,375.229L629.751,375.229z
					 M629.751,375.229"/>
				<path fill="#FFFFFF" d="M629.95,360.817c0.031-1.438-1.127-2.66-2.6-2.671l-15.811-0.223c-1.479-0.031-2.653,1.15-2.691,2.604
					c-0.023,1.469,1.143,2.665,2.6,2.677l15.826,0.24C628.747,363.455,629.95,362.293,629.95,360.817L629.95,360.817z
					 M629.95,360.817"/>
				<path fill="#FFFFFF" d="M764.1,433.922c-0.046,1.523,1.166,2.696,2.576,2.704l15.842,0.229c1.473,0.031,2.715-1.115,2.715-2.599
					c0.031-1.445-1.166-2.626-2.631-2.653l-15.841-0.23C765.311,431.351,764.116,432.493,764.1,433.922L764.1,433.922z
					 M764.1,433.922"/>
				<path fill="#FFFFFF" d="M764.307,419.522c-0.053,1.519,1.158,2.726,2.6,2.741l15.834,0.196c1.457,0.03,2.676-1.139,2.691-2.63
					c0.031-1.418-1.165-2.68-2.621-2.696l-15.836-0.221C765.526,416.893,764.339,418.108,764.307,419.522L764.307,419.522z
					 M764.307,419.522"/>
				<path fill="#FFFFFF" d="M764.483,404.858c0,1.48,1.197,2.652,2.623,2.684l15.842,0.234c1.457,0.019,2.699-1.139,2.723-2.626
					c0-1.418-1.189-2.649-2.646-2.661l-15.826-0.253C765.749,402.228,764.507,403.439,764.483,404.858L764.483,404.858z
					 M764.483,404.858"/>
				<path fill="#FFFFFF" d="M764.715,390.466c0,1.44,1.149,2.664,2.583,2.679l15.826,0.203c1.449,0.015,2.723-1.127,2.723-2.577
					c0.047-1.476-1.158-2.66-2.607-2.707l-15.849-0.234C765.956,387.831,764.745,388.989,764.715,390.466L764.715,390.466z
					 M764.715,390.466"/>
				<path fill="#FFFFFF" d="M764.882,377.154c0,1.441,1.182,2.629,2.639,2.656l15.826,0.238c1.441,0.011,2.669-1.139,2.684-2.584
					c0.016-1.446-1.165-2.695-2.621-2.719l-15.812-0.21C766.155,374.508,764.898,375.716,764.882,377.154L764.882,377.154z
					 M764.882,377.154"/>
				<path fill="#FFFFFF" d="M765.12,362.76c-0.068,1.443,1.15,2.662,2.584,2.681l15.827,0.214c1.458,0.031,2.684-1.143,2.729-2.584
					c0.016-1.469-1.211-2.691-2.638-2.722l-15.826-0.199C766.324,360.131,765.12,361.312,765.12,362.76L765.12,362.76z
					 M765.12,362.76"/>
				<path fill="#FFFFFF" d="M672.799,369.98l-0.759,54.703l55.225,0.79l0.751-54.692L672.799,369.98z M721.635,419.676
					l-43.814-0.622l0.598-43.3l43.861,0.652L721.635,419.676z M721.635,419.676"/>
				<radialGradient id="SVGID_2_" cx="697.5657" cy="395.3228" r="35.6161" gradientUnits="userSpaceOnUse">
					<stop  offset="0.5255" style="stop-color:#262262"/>
					<stop  offset="0.8721" style="stop-color:#2E3192"/>
					<stop  offset="1" style="stop-color:#2E3192;stop-opacity:0.6"/>
				</radialGradient>
				<polygon fill="url(#SVGID_2_)" points="661.289,429.223 662.256,360.38 733.843,361.423 732.839,430.266 				"/>
			</g>
		</g>
	</g>
</g>
</svg>
