<?xml version="1.0" encoding="utf-8"?>
<!-- Generator: Adobe Illustrator 16.0.4, SVG Export Plug-In . SVG Version: 6.00 Build 0)  -->
<!DOCTYPE svg PUBLIC "-//W3C//DTD SVG 1.1//EN" "http://www.w3.org/Graphics/SVG/1.1/DTD/svg11.dtd">
<svg version="1.1" id="Layer_1" xmlns="http://www.w3.org/2000/svg" xmlns:xlink="http://www.w3.org/1999/xlink" x="0px" y="0px"
	 width="3761.996px" height="1166.027px" viewBox="0 0 3761.996 1166.027" enable-background="new 0 0 3761.996 1166.027"
	 xml:space="preserve">
<g>
	<defs>
		<rect id="SVGID_1_" x="14.439" y="-201.037" width="3762.154" height="1628.147"/>
	</defs>
	<clipPath id="SVGID_2_">
		<use xlink:href="#SVGID_1_"  overflow="visible"/>
	</clipPath>
	<g opacity="0.3" clip-path="url(#SVGID_2_)">
		<g>
			<path fill="#717070" d="M2617.439,911.583c0-42.075,4.67-75.052,13.855-98.028c8.627-21.588,27.873-44.043,57.18-66.76
				c63.176-41.32,116.568-93.228,158.711-154.31c43.338-62.845,65.314-132.245,65.314-206.267
				c0-113.201-37.871-204.319-112.557-270.823c-73.887-65.76-176.209-99.108-304.094-99.108c-118.66,0-216.74,29.867-291.494,88.758
				c-76.65,60.354-114.613,147.913-112.85,260.24c0.031,2.461,0.445,4.896,1.227,7.228l1.633,4.914
				c3.275,9.831,12.477,16.46,22.828,16.46h232.768c13.188,0,23.908-10.604,24.068-23.79c0.445-39.516,11.762-68.202,34.59-87.702
				c23.863-20.389,52.395-30.299,87.23-30.299c42.587,0,73.957,11.443,95.91,34.973c22.406,24.021,33.295,57.257,33.295,101.607
				c0,40.51-10.461,77.531-31.086,110.046c-21.693,34.19-51.192,66.653-87.66,96.489c-68.881,52.963-113.977,97.334-137.846,135.631
				c-24.76,39.742-37.066,98.809-37.65,180.569c-0.037,6.414,2.477,12.576,6.986,17.123c4.523,4.551,10.666,7.111,17.084,7.111
				h238.501C2606.666,935.645,2617.439,924.868,2617.439,911.583z M2409.303,756.291c20.518-32.91,63.113-74.34,126.618-123.144
				c0.191-0.152,0.367-0.295,0.553-0.444c40.594-33.162,73.62-69.562,98.128-108.202c25.594-40.348,38.576-86.044,38.576-135.825
				c0-56.316-15.543-101.542-46.215-134.438c-31.131-33.351-75.245-50.266-131.113-50.266c-46.131,0-86.004,14.073-118.492,41.831
				c-28.387,24.254-45.141,57.797-49.988,99.959h-187.641c2.518-88.454,33.508-154.961,94.393-202.912
				c66.074-52.049,154.125-78.442,261.729-78.442c115.74,0,207.285,29.253,272.088,86.935
				c64.895,57.774,96.439,134.606,96.439,234.876c0,64.081-19.109,124.289-56.805,178.941
				c-38.754,56.156-87.928,103.882-146.18,141.857c-0.537,0.34-1.059,0.709-1.559,1.092c-36.635,28.242-61.274,57.705-73.219,87.576
				c-9.654,24.131-15.184,54.326-16.803,91.838h-190.3C2381.949,828.238,2391.957,784.156,2409.303,756.291z M3222.607,1146.704
				h-629.223c-13.289,0-24.062-10.77-24.062-24.057v-97.889h-189.994v97.889c0,13.287-10.766,24.057-24.062,24.057h-638.972
				c-13.291,0-24.064-10.77-24.064-24.057v-97.889h-189.09v97.889c0,13.287-10.771,24.057-24.053,24.057H840.595
				c-13.289,0-24.062-10.77-24.062-24.057v-97.889H627.45v97.889c0,13.287-10.782,24.057-24.062,24.057H14.439v-48.119h564.887
				v-97.889c0-13.285,10.766-24.059,24.062-24.059h237.207c13.288,0,24.062,10.773,24.062,24.059v97.889h590.36v-97.889
				c0-13.285,10.781-24.059,24.07-24.059h237.207c13.289,0,24.052,10.773,24.052,24.059v97.889h590.867v-97.889
				c0-13.285,10.766-24.059,24.053-24.059h238.119c13.281,0,24.055,10.773,24.055,24.059v97.889h605.168V1146.704z M865.707,911.583
				c0-42.075,4.662-75.052,13.855-98.028c8.627-21.584,27.873-44.039,57.18-66.76c63.184-41.32,116.568-93.228,158.711-154.31
				c43.338-62.85,65.314-132.248,65.314-206.267c0-113.206-37.879-204.323-112.564-270.823
				c-73.881-65.76-176.193-99.108-304.086-99.108c-118.66,0-216.733,29.864-291.512,88.758
				c-76.633,60.357-114.604,147.917-112.84,260.24c0.031,2.461,0.452,4.896,1.235,7.228l1.633,4.914
				c3.268,9.831,12.469,16.46,22.82,16.46h232.773c13.182,0,23.902-10.604,24.055-23.786c0.461-39.52,11.779-68.206,34.605-87.706
				c23.855-20.389,52.395-30.299,87.23-30.299c42.58,0,73.957,11.443,95.918,34.973c22.398,24.021,33.285,57.257,33.285,101.607
				c0,40.51-10.466,77.531-31.085,110.046c-21.692,34.187-51.184,66.649-87.667,96.489
				c-68.873,52.963-113.961,97.334-137.838,135.631c-24.753,39.742-37.067,98.809-37.649,180.569
				c-0.046,6.414,2.469,12.579,6.993,17.123c4.508,4.551,10.658,7.111,17.068,7.111h238.502
				C854.942,935.645,865.707,924.868,865.707,911.583z M657.577,756.291c20.511-32.91,63.106-74.345,126.604-123.144
				c0.192-0.152,0.37-0.295,0.569-0.444c40.594-33.162,73.604-69.567,98.117-108.202c25.596-40.348,38.578-86.044,38.578-135.825
				c0-56.316-15.543-101.542-46.223-134.438c-31.124-33.351-75.237-50.266-131.105-50.266c-46.139,0-86.012,14.073-118.492,41.831
				c-28.379,24.25-45.141,57.797-49.994,99.959H387.996c2.516-88.454,33.502-154.957,94.392-202.912
				c66.075-52.049,154.133-78.442,261.729-78.442c115.746,0,207.287,29.253,272.088,86.935
				c64.892,57.771,96.439,134.606,96.439,234.876c0,64.081-19.117,124.285-56.805,178.941
				c-38.745,56.16-87.936,103.882-146.188,141.857c-0.528,0.34-1.05,0.709-1.548,1.092c-36.646,28.25-61.282,57.713-73.222,87.576
				c-9.653,24.131-15.19,54.326-16.8,91.838H627.772C630.218,828.238,640.225,784.156,657.577,756.291z M1741.573,911.583
				c0-42.075,4.67-75.052,13.857-98.028c8.625-21.588,27.874-44.043,57.188-66.76c63.176-41.32,116.559-93.228,158.701-154.31
				c43.34-62.845,65.316-132.245,65.316-206.267c0-113.201-37.865-204.319-112.564-270.823
				c-73.881-65.76-176.195-99.108-304.088-99.108c-118.668,0-216.74,29.864-291.502,88.758
				c-76.635,60.354-114.605,147.913-112.842,260.24c0.032,2.461,0.444,4.904,1.227,7.235l1.633,4.914
				c3.283,9.827,12.477,16.452,22.828,16.452h232.768c13.188,0,23.916-10.604,24.055-23.79
				c0.459-39.516,11.777-68.202,34.611-87.702c23.855-20.389,52.387-30.299,87.223-30.299c42.588,0,73.957,11.443,95.918,34.973
				c22.398,24.021,33.287,57.257,33.287,101.607c0,40.51-10.459,77.531-31.086,110.046c-21.701,34.19-51.191,66.653-87.66,96.489
				c-68.879,52.963-113.975,97.334-137.838,135.631c-24.768,39.742-37.074,98.809-37.658,180.569
				c-0.037,6.414,2.477,12.576,6.986,17.123c4.523,4.551,10.666,7.111,17.076,7.111h238.51
				C1730.808,935.645,1741.573,924.868,1741.573,911.583z M1533.445,756.291c20.512-32.91,63.107-74.34,126.613-123.144
				c0.184-0.152,0.367-0.295,0.559-0.444c40.586-33.162,73.604-69.562,98.119-108.202c25.602-40.348,38.57-86.044,38.57-135.825
				c0-56.316-15.545-101.542-46.209-134.438c-31.138-33.351-75.244-50.266-131.113-50.266c-46.129,0-86.004,14.073-118.484,41.831
				c-28.387,24.25-45.141,57.805-50.01,99.959h-187.627c2.523-88.454,33.502-154.961,94.393-202.912
				c66.074-52.049,154.132-78.442,261.729-78.442c115.74,0,207.287,29.253,272.088,86.935
				c64.895,57.774,96.439,134.606,96.439,234.876c0,64.081-19.109,124.289-56.805,178.941
				c-38.754,56.156-87.934,103.882-146.188,141.857c-0.529,0.34-1.051,0.709-1.549,1.092
				c-36.637,28.242-61.283,57.705-73.213,87.576c-9.662,24.131-15.197,54.326-16.807,91.838h-190.303
				C1506.085,828.238,1516.091,784.156,1533.445,756.291z"/>
		</g>
	</g>
	<g clip-path="url(#SVGID_2_)">
		<linearGradient id="SVGID_3_" gradientUnits="userSpaceOnUse" x1="14.9395" y1="581.4956" x2="3760.0935" y2="581.4956">
			<stop  offset="0" style="stop-color:#FFFFFF"/>
			<stop  offset="1" style="stop-color:#EDEDED"/>
		</linearGradient>
		<path fill="url(#SVGID_3_)" d="M2593.385,1146.204c-12.993,0-23.562-10.567-23.562-23.557v-98.389h-190.994v98.389
			c0,12.989-10.57,23.557-23.562,23.557h-638.972c-12.994,0-23.564-10.567-23.564-23.557v-98.389h-190.09v98.389
			c0,12.989-10.566,23.557-23.553,23.557H840.595c-12.992,0-23.562-10.567-23.562-23.557v-98.389H626.95v98.389
			c0,12.989-10.57,23.557-23.562,23.557H14.939v-47.119h564.887v-98.389c0-12.991,10.57-23.559,23.562-23.559h237.207
			c12.992,0,23.562,10.568,23.562,23.559v98.389h591.36v-98.389c0-12.991,10.574-23.559,23.57-23.559h237.207
			c12.987,0,23.552,10.568,23.552,23.559v98.389h591.867v-98.389c0-12.991,10.566-23.559,23.553-23.559h238.119
			c12.989,0,23.555,10.568,23.555,23.559v98.389h1143.154v47.119H2593.385z M2354.883,935.145c-6.325,0-12.266-2.473-16.729-6.963
			c-4.383-4.42-6.877-10.532-6.841-16.769c0.583-81.683,12.875-140.662,37.575-180.308c23.838-38.248,68.889-82.57,137.725-135.499
			c36.533-29.889,66.062-62.393,87.777-96.618c20.679-32.6,31.164-69.714,31.164-110.313c0-44.486-10.936-77.834-33.43-101.948
			c-22.057-23.64-53.548-35.132-96.275-35.132c-34.958,0-63.598,9.95-87.555,30.419c-22.946,19.602-34.318,48.411-34.765,88.077
			c-0.156,12.845-10.729,23.295-23.568,23.295h-232.768c-10.158,0-19.142-6.478-22.354-16.118l-1.633-4.914
			c-0.767-2.288-1.171-4.668-1.201-7.077c-1.762-112.17,36.143-199.593,112.659-259.841c74.67-58.824,172.639-88.65,291.185-88.65
			c127.763,0,229.965,33.303,303.761,98.982C2874.186,182.175,2912,273.167,2912,386.218c0,73.918-21.945,143.221-65.227,205.983
			c-42.098,61.016-95.449,112.888-158.573,154.174c-29.426,22.808-48.718,45.34-57.37,66.993
			c-9.218,23.057-13.891,56.101-13.891,98.214c0,12.993-10.566,23.562-23.555,23.562H2354.883z M2495.85,204.472
			c55.721,0,99.71,16.859,130.748,50.108c30.576,32.793,46.08,77.909,46.08,134.096c0,49.678-12.953,95.286-38.499,135.558
			c-24.462,38.567-57.442,74.932-98.021,108.083l-0.547,0.439c-63.539,48.83-106.18,90.306-126.731,123.271
			c-17.378,27.918-27.427,72.153-29.866,131.477l-0.021,0.521h191.3l0.021-0.479c1.62-37.536,7.104-67.522,16.768-91.673
			c11.908-29.779,36.49-59.174,73.06-87.366c0.515-0.394,1.026-0.753,1.521-1.065c58.302-38.007,107.528-85.781,146.323-141.996
			c37.752-54.734,56.895-115.034,56.895-179.226c0-100.425-31.602-177.376-96.607-235.25c-64.9-57.77-156.557-87.061-272.42-87.061
			c-107.708,0-195.871,26.428-262.038,78.55c-61.121,48.138-92.06,114.635-94.583,203.291l-0.015,0.514h188.602l0.051-0.442
			c4.828-41.997,21.588-75.519,49.816-99.636C2410.077,218.506,2449.835,204.472,2495.85,204.472z M1479.009,935.145
			c-6.319,0-12.258-2.473-16.722-6.963c-4.383-4.42-6.877-10.532-6.841-16.769c0.583-81.686,12.876-140.665,37.583-180.308
			c23.831-38.245,68.879-82.567,137.719-135.499c36.516-29.874,66.044-62.378,87.777-96.618
			c20.679-32.597,31.164-69.712,31.164-110.313c0-44.483-10.932-77.831-33.422-101.948c-22.064-23.64-53.559-35.132-96.283-35.132
			c-34.961,0-63.598,9.95-87.548,30.419c-22.947,19.597-34.325,48.406-34.786,88.076c-0.135,12.846-10.702,23.296-23.555,23.296
			h-232.768c-10.151,0-19.135-6.475-22.354-16.111l-1.632-4.913c-0.767-2.282-1.17-4.665-1.202-7.085
			c-1.76-112.163,36.141-199.586,112.652-259.841c74.674-58.824,172.645-88.65,291.192-88.65
			c127.767,0,229.964,33.303,303.755,98.982c74.581,66.399,112.397,157.391,112.397,270.45c0,73.919-21.946,143.222-65.228,205.983
			c-42.103,61.023-95.451,112.896-158.563,154.174c-29.433,22.808-48.727,45.34-57.378,66.993
			c-9.219,23.054-13.893,56.098-13.893,98.214c0,12.993-10.566,23.562-23.555,23.562H1479.009z M1619.984,204.472
			c55.714,0,99.704,16.859,130.747,50.108c30.573,32.797,46.075,77.913,46.075,134.096c0,49.696-12.951,95.305-38.493,135.558
			c-24.475,38.576-57.452,74.94-98.013,108.083c-0.199,0.155-0.38,0.296-0.562,0.446c-63.535,48.825-106.174,90.301-126.718,123.264
			c-17.382,27.911-27.433,72.146-29.872,131.477l-0.021,0.521h191.303l0.021-0.479c1.61-37.523,7.096-67.509,16.771-91.673
			c11.889-29.769,36.467-59.162,73.054-87.366c0.499-0.383,1.008-0.742,1.514-1.067c58.304-38.008,107.536-85.781,146.329-141.993
			c37.751-54.734,56.893-115.034,56.893-179.226c0-100.425-31.601-177.376-96.607-235.25
			c-64.898-57.77-156.554-87.061-272.42-87.061c-107.708,0-195.871,26.428-262.038,78.55
			c-61.115,48.128-92.053,114.626-94.583,203.291l-0.014,0.514h188.586l0.052-0.442c4.852-42.008,21.62-75.531,49.837-99.636
			C1534.211,218.506,1573.966,204.472,1619.984,204.472z M603.143,935.145c-6.238,0-12.33-2.538-16.713-6.963
			c-4.397-4.417-6.893-10.528-6.849-16.768c0.582-81.669,12.872-140.648,37.574-180.309
			c23.851-38.256,68.898-82.578,137.718-135.499c36.529-29.877,66.06-62.381,87.784-96.618
			c20.678-32.608,31.163-69.723,31.163-110.313c0-44.484-10.932-77.832-33.419-101.948c-22.065-23.64-53.56-35.132-96.284-35.132
			c-34.966,0-63.606,9.95-87.556,30.419c-22.941,19.599-34.318,48.41-34.78,88.08c-0.148,12.844-10.715,23.292-23.555,23.292
			H365.453c-10.162,0-19.142-6.477-22.346-16.117l-1.633-4.915c-0.772-2.301-1.179-4.681-1.209-7.077
			c-1.76-112.158,36.141-199.581,112.65-259.841c74.69-58.824,172.665-88.65,291.202-88.65c127.765,0,229.962,33.303,303.753,98.982
			c74.581,66.408,112.397,157.4,112.397,270.45c0,73.914-21.945,143.216-65.227,205.983
			c-42.103,61.024-95.455,112.896-158.573,154.174c-29.426,22.812-48.717,45.344-57.37,66.993
			c-9.218,23.037-13.892,56.081-13.892,98.214c0,12.993-10.57,23.562-23.562,23.562H603.143z M744.117,204.472
			c55.723,0,99.71,16.859,130.739,50.108c30.583,32.79,46.089,77.906,46.089,134.096c0,49.679-12.953,95.287-38.5,135.558
			c-24.487,38.594-57.463,74.958-98.011,108.083c-0.16,0.119-0.32,0.246-0.486,0.379c-63.613,48.889-106.249,90.364-126.795,123.331
			c-17.378,27.908-27.432,72.143-29.88,131.477l-0.021,0.521h191.311l0.021-0.479c1.609-37.511,7.093-67.499,16.765-91.673
			c11.904-29.775,36.486-59.17,73.062-87.366c0.498-0.382,1.006-0.741,1.513-1.067c58.329-38.024,107.56-85.797,146.33-141.993
			c37.752-54.749,56.894-115.05,56.894-179.226c0-100.425-31.601-177.376-96.607-235.25c-64.899-57.77-156.555-87.061-272.42-87.061
			c-107.708,0-195.871,26.428-262.039,78.55c-61.123,48.138-92.061,114.635-94.583,203.291l-0.015,0.514h188.595l0.051-0.442
			c4.834-41.995,21.597-75.518,49.822-99.636C658.337,218.506,698.094,204.472,744.117,204.472z"/>
		<path fill="#FFFFFF" d="M2495.85,17.287c127.638,0,229.726,33.259,303.427,98.854c74.465,66.308,112.223,157.175,112.223,270.077
			c0,73.814-21.916,143.021-65.139,205.699c-42.059,60.962-95.363,112.788-158.436,154.041l-0.033,0.021l-0.031,0.025
			c-29.465,22.84-48.811,45.442-57.496,67.178c-9.24,23.116-13.926,56.223-13.926,98.4c0,12.717-10.343,23.062-23.055,23.062
			h-238.501c-6.19,0-12.006-2.421-16.374-6.815c-4.291-4.326-6.731-10.309-6.696-16.412c0.583-81.588,12.849-140.483,37.499-180.049
			c23.807-38.197,68.818-82.476,137.63-135.384c36.562-29.914,66.126-62.458,87.871-96.729
			c20.731-32.681,31.242-69.886,31.242-110.581c0-44.619-10.979-78.078-33.565-102.29c-22.156-23.747-53.767-35.291-96.64-35.291
			c-35.083,0-63.828,9.989-87.88,30.539c-23.062,19.7-34.491,48.633-34.94,88.45c-0.152,12.573-10.501,22.802-23.068,22.802
			h-232.768c-9.942,0-18.735-6.34-21.879-15.775l-1.634-4.918c-0.75-2.236-1.145-4.565-1.175-6.925
			c-1.759-112.005,36.081-199.292,112.469-259.439C2279.554,47.077,2377.419,17.287,2495.85,17.287 M2138.699,346.763h1.029h187.641
			h0.892l0.102-0.886c4.812-41.867,21.516-75.281,49.644-99.312c32.303-27.599,71.95-41.593,117.843-41.593
			c55.577,0,99.443,16.805,130.381,49.948c30.488,32.698,45.947,77.7,45.947,133.756c0,49.581-12.928,95.1-38.422,135.29
			c-24.432,38.521-57.376,74.845-97.908,107.958l-0.176,0.142l-0.36,0.289c-63.592,48.871-106.273,90.391-126.858,123.407
			c-17.424,27.992-27.498,72.309-29.94,131.72l-0.043,1.041h1.042h190.3h0.957l0.041-0.957c1.619-37.479,7.092-67.412,16.732-91.509
			c11.875-29.695,36.403-59.018,72.899-87.154c0.504-0.386,1.004-0.736,1.496-1.048c58.35-38.039,107.625-85.857,146.457-142.126
			c37.811-54.819,56.982-115.215,56.982-179.509c0-100.576-31.656-177.649-96.775-235.624
			c-64.994-57.854-156.762-87.188-272.752-87.188c-107.823,0-196.089,26.464-262.347,78.658
			c-61.245,48.235-92.246,114.855-94.773,203.669L2138.699,346.763 M1619.984,17.287c127.64,0,229.726,33.259,303.423,98.854
			c74.47,66.3,112.229,157.167,112.229,270.077c0,73.815-21.916,143.022-65.14,205.699
			c-42.065,60.97-95.367,112.796-158.425,154.041l-0.034,0.021l-0.032,0.025c-29.472,22.839-48.819,45.441-57.504,67.178
			c-9.242,23.113-13.928,56.22-13.928,98.4c0,12.717-10.342,23.062-23.055,23.062h-238.51c-6.186,0-11.998-2.421-16.366-6.815
			c-4.291-4.326-6.731-10.309-6.696-16.412c0.583-81.592,12.851-140.486,37.507-180.049
			c23.799-38.192,68.808-82.471,137.623-135.384c36.546-29.899,66.11-62.443,87.872-96.729
			c20.729-32.678,31.241-69.883,31.241-110.581c0-44.617-10.977-78.076-33.557-102.29c-22.164-23.747-53.778-35.291-96.648-35.291
			c-35.085,0-63.829,9.989-87.872,30.539c-23.063,19.695-34.499,48.628-34.962,88.452c-0.132,12.572-10.475,22.801-23.055,22.801
			h-232.768c-9.936,0-18.729-6.337-21.879-15.769l-1.634-4.916c-0.75-2.232-1.145-4.564-1.175-6.934
			c-1.758-111.998,36.079-199.285,112.461-259.439C1403.685,47.077,1501.552,17.287,1619.984,17.287 M1262.834,346.763h1.029
			h187.627h0.892l0.102-0.885c4.837-41.879,21.547-75.293,49.666-99.313c32.294-27.599,71.94-41.592,117.835-41.592
			c55.569,0,99.437,16.805,130.381,49.948c30.484,32.703,45.941,77.704,45.941,133.756c0,49.6-12.925,95.118-38.415,135.29
			c-24.446,38.53-57.387,74.854-97.909,107.965c-0.192,0.149-0.377,0.294-0.533,0.424
			c-63.597,48.873-106.276,90.393-126.853,123.407c-17.429,27.985-27.504,72.303-29.947,131.72l-0.043,1.041h1.042h190.303h0.958
			l0.041-0.958c1.608-37.465,7.082-67.398,16.736-91.509c11.854-29.684,36.38-59.007,72.894-87.154
			c0.488-0.375,0.986-0.726,1.485-1.047c58.356-38.042,107.634-85.86,146.465-142.126c37.81-54.819,56.981-115.215,56.981-179.509
			c0-100.576-31.655-177.649-96.774-235.624c-64.993-57.854-156.761-87.188-272.753-87.188
			c-107.823,0-196.089,26.464-262.347,78.658c-61.239,48.226-92.24,114.847-94.773,203.669L1262.834,346.763 M744.117,17.287
			c127.639,0,229.724,33.259,303.421,98.854c74.47,66.31,112.229,157.177,112.229,270.077c0,73.81-21.916,143.017-65.138,205.699
			c-42.065,60.97-95.371,112.797-158.435,154.041l-0.034,0.021l-0.032,0.025c-29.464,22.843-48.809,45.445-57.496,67.178
			c-9.241,23.096-13.927,56.203-13.927,98.4c0,12.717-10.346,23.062-23.062,23.062H603.143c-6.105,0-12.068-2.484-16.359-6.817
			c-4.303-4.322-6.746-10.303-6.702-16.41c0.581-81.575,12.847-140.469,37.498-180.049c23.819-38.205,68.829-82.483,137.623-135.384
			c36.559-29.902,66.125-62.446,87.878-96.729c20.73-32.689,31.241-69.895,31.241-110.581c0-44.618-10.976-78.077-33.554-102.29
			c-22.164-23.747-53.778-35.291-96.649-35.291c-35.091,0-63.836,9.989-87.88,30.539c-23.058,19.698-34.492,48.631-34.956,88.454
			c-0.145,12.571-10.487,22.798-23.055,22.798H365.453c-9.946,0-18.735-6.34-21.871-15.775l-1.635-4.918
			c-0.755-2.249-1.153-4.578-1.182-6.924c-1.758-111.993,36.079-199.281,112.459-259.439
			C527.825,47.077,625.696,17.287,744.117,17.287 M386.968,346.763h1.029h187.635h0.891l0.103-0.885
			c4.819-41.866,21.524-75.28,49.65-99.313c32.295-27.599,71.943-41.592,117.843-41.592c55.579,0,99.442,16.805,130.374,49.949
			c30.493,32.695,45.955,77.697,45.955,133.755c0,49.582-12.927,95.1-38.423,135.29c-24.458,38.547-57.398,74.872-97.872,107.938
			c-0.18,0.135-0.344,0.265-0.515,0.4l-0.064,0.051c-63.59,48.87-106.266,90.39-126.844,123.407
			c-17.425,27.982-27.504,72.299-29.956,131.719l-0.043,1.042h1.042h190.311h0.958l0.041-0.958
			c1.607-37.454,7.08-67.387,16.729-91.509c11.871-29.691,36.399-59.015,72.902-87.155c0.487-0.375,0.985-0.725,1.485-1.047
			c58.381-38.059,107.659-85.876,146.466-142.126c37.81-54.834,56.981-115.23,56.981-179.509
			c0-100.577-31.655-177.65-96.774-235.624c-64.994-57.854-156.761-87.188-272.753-87.188c-107.823,0-196.089,26.464-262.348,78.658
			c-61.247,48.235-92.248,114.855-94.773,203.669L386.968,346.763 M2593.385,977.638c12.712,0,23.055,10.344,23.055,23.059v97.889v1
			h1h1142.154v46.119H2593.385c-12.717,0-23.062-10.343-23.062-23.057v-97.889v-1h-1h-189.994h-1v1v97.889
			c0,12.713-10.346,23.057-23.062,23.057h-638.972c-12.718,0-23.064-10.343-23.064-23.057v-97.889v-1h-1h-189.09h-1v1v97.889
			c0,12.713-10.341,23.057-23.053,23.057H840.595c-12.716,0-23.062-10.343-23.062-23.057v-97.889v-1h-1H627.45h-1v1v97.889
			c0,12.713-10.346,23.057-23.062,23.057H15.439v-46.119h563.887h1v-1v-97.889c0-12.714,10.345-23.059,23.062-23.059h237.207
			c12.716,0,23.062,10.344,23.062,23.059v97.889v1h1h590.36h1v-1v-97.889c0-12.714,10.35-23.059,23.07-23.059h237.207
			c12.711,0,23.052,10.344,23.052,23.059v97.889v1h1h590.867h1v-1v-97.889c0-12.714,10.342-23.059,23.053-23.059H2593.385
			 M2495.85,16.287c-118.66,0-216.74,29.867-291.494,88.757c-76.65,60.354-114.613,147.914-112.85,260.24
			c0.031,2.462,0.445,4.896,1.227,7.228l1.633,4.915c3.275,9.83,12.477,16.46,22.828,16.46h232.768
			c13.188,0,23.908-10.605,24.068-23.79c0.445-39.517,11.762-68.202,34.59-87.702c23.863-20.389,52.395-30.299,87.23-30.299
			c42.587,0,73.957,11.443,95.91,34.973c22.406,24.02,33.295,57.256,33.295,101.607c0,40.51-10.461,77.53-31.086,110.046
			c-21.693,34.19-51.192,66.653-87.66,96.489c-68.881,52.962-113.977,97.333-137.846,135.63
			c-24.76,39.742-37.066,98.809-37.65,180.57c-0.037,6.414,2.477,12.576,6.986,17.123c4.523,4.551,10.666,7.111,17.084,7.111
			h238.501c13.281,0,24.055-10.777,24.055-24.062c0-42.076,4.67-75.053,13.855-98.029c8.627-21.588,27.873-44.042,57.18-66.759
			c63.176-41.321,116.568-93.228,158.711-154.31c43.338-62.846,65.314-132.245,65.314-206.267
			c0-113.202-37.871-204.319-112.557-270.824C2726.057,49.636,2623.734,16.287,2495.85,16.287L2495.85,16.287z M2139.729,345.763
			c2.518-88.455,33.508-154.961,94.393-202.912c66.074-52.049,154.125-78.443,261.729-78.443
			c115.74,0,207.285,29.253,272.088,86.935c64.895,57.774,96.439,134.606,96.439,234.877c0,64.08-19.109,124.289-56.805,178.941
			c-38.754,56.155-87.928,103.881-146.18,141.856c-0.537,0.34-1.059,0.709-1.559,1.092c-36.635,28.242-61.274,57.705-73.219,87.576
			c-9.654,24.131-15.184,54.327-16.803,91.838h-190.3c2.438-59.285,12.445-103.367,29.791-131.232
			c20.518-32.91,63.113-74.34,126.618-123.143c0.191-0.152,0.367-0.295,0.553-0.444c40.594-33.163,73.62-69.563,98.128-108.202
			c25.594-40.348,38.576-86.045,38.576-135.825c0-56.316-15.543-101.542-46.215-134.438
			c-31.131-33.351-75.245-50.267-131.113-50.267c-46.131,0-86.004,14.074-118.492,41.832
			c-28.387,24.253-45.141,57.796-49.988,99.959H2139.729L2139.729,345.763z M1619.984,16.287
			c-118.668,0-216.74,29.864-291.502,88.757c-76.635,60.354-114.605,147.914-112.842,260.24c0.032,2.462,0.444,4.904,1.227,7.236
			l1.633,4.913c3.283,9.827,12.477,16.453,22.828,16.453h232.768c13.188,0,23.916-10.605,24.055-23.79
			c0.459-39.517,11.777-68.202,34.611-87.702c23.855-20.389,52.387-30.299,87.223-30.299c42.588,0,73.957,11.443,95.918,34.973
			c22.398,24.02,33.287,57.256,33.287,101.607c0,40.51-10.459,77.53-31.086,110.046c-21.701,34.19-51.191,66.653-87.66,96.489
			c-68.879,52.962-113.975,97.333-137.838,135.63c-24.768,39.742-37.074,98.809-37.658,180.57
			c-0.037,6.414,2.477,12.576,6.986,17.123c4.523,4.551,10.666,7.111,17.076,7.111h238.51c13.289,0,24.055-10.777,24.055-24.062
			c0-42.076,4.67-75.053,13.857-98.029c8.625-21.588,27.874-44.042,57.188-66.759c63.176-41.321,116.559-93.228,158.701-154.31
			c43.34-62.846,65.316-132.245,65.316-206.267c0-113.202-37.865-204.319-112.564-270.824
			C1850.191,49.636,1747.876,16.287,1619.984,16.287L1619.984,16.287z M1263.863,345.763
			c2.523-88.455,33.502-154.961,94.393-202.912c66.074-52.049,154.132-78.443,261.729-78.443
			c115.74,0,207.287,29.253,272.088,86.935c64.895,57.774,96.439,134.606,96.439,234.877c0,64.08-19.109,124.289-56.805,178.941
			c-38.754,56.155-87.934,103.881-146.188,141.856c-0.529,0.34-1.051,0.709-1.549,1.092c-36.637,28.242-61.283,57.705-73.213,87.576
			c-9.662,24.131-15.197,54.327-16.807,91.838h-190.303c2.438-59.285,12.443-103.367,29.797-131.232
			c20.512-32.91,63.107-74.34,126.613-123.143c0.184-0.152,0.367-0.295,0.559-0.444c40.586-33.163,73.604-69.563,98.119-108.202
			c25.602-40.348,38.57-86.045,38.57-135.825c0-56.316-15.545-101.542-46.209-134.438c-31.138-33.351-75.244-50.267-131.113-50.267
			c-46.129,0-86.004,14.074-118.484,41.832c-28.387,24.249-45.141,57.804-50.01,99.959H1263.863L1263.863,345.763z M744.117,16.287
			c-118.66,0-216.733,29.864-291.512,88.757c-76.633,60.357-114.604,147.917-112.84,260.24c0.031,2.462,0.452,4.896,1.235,7.228
			l1.633,4.915c3.268,9.83,12.469,16.46,22.82,16.46h232.773c13.182,0,23.902-10.605,24.055-23.787
			c0.461-39.52,11.779-68.205,34.605-87.705c23.855-20.389,52.395-30.299,87.23-30.299c42.58,0,73.957,11.443,95.918,34.973
			c22.398,24.02,33.285,57.256,33.285,101.607c0,40.51-10.466,77.53-31.085,110.046c-21.692,34.187-51.184,66.649-87.667,96.489
			c-68.873,52.962-113.961,97.333-137.838,135.63c-24.753,39.742-37.067,98.809-37.649,180.57
			c-0.046,6.414,2.469,12.578,6.993,17.123c4.508,4.551,10.658,7.111,17.068,7.111h238.502c13.297,0,24.062-10.777,24.062-24.062
			c0-42.076,4.662-75.053,13.855-98.029c8.627-21.584,27.873-44.039,57.18-66.759c63.184-41.321,116.568-93.228,158.711-154.31
			c43.338-62.85,65.314-132.248,65.314-206.267c0-113.206-37.88-204.323-112.564-270.824
			C974.323,49.636,872.01,16.287,744.117,16.287L744.117,16.287z M387.996,345.763c2.516-88.455,33.502-154.958,94.392-202.912
			c66.075-52.049,154.133-78.443,261.729-78.443c115.746,0,207.287,29.253,272.088,86.935
			c64.892,57.771,96.439,134.606,96.439,234.877c0,64.08-19.117,124.284-56.805,178.941
			c-38.745,56.16-87.936,103.881-146.188,141.856c-0.528,0.34-1.05,0.709-1.548,1.092c-36.646,28.25-61.282,57.713-73.222,87.576
			c-9.653,24.131-15.19,54.327-16.8,91.838H627.772c2.446-59.285,12.453-103.367,29.806-131.232
			c20.511-32.91,63.106-74.344,126.604-123.143c0.192-0.152,0.37-0.295,0.569-0.444c40.594-33.163,73.604-69.567,98.117-108.202
			c25.596-40.348,38.578-86.045,38.578-135.825c0-56.316-15.543-101.542-46.223-134.438
			c-31.124-33.351-75.237-50.267-131.105-50.267c-46.139,0-86.012,14.074-118.492,41.832
			c-28.379,24.249-45.141,57.796-49.994,99.959H387.996L387.996,345.763z M2593.385,976.638h-238.119
			c-13.287,0-24.053,10.773-24.053,24.059v97.889h-590.867v-97.889c0-13.285-10.763-24.059-24.052-24.059h-237.207
			c-13.289,0-24.07,10.773-24.07,24.059v97.889h-590.36v-97.889c0-13.285-10.773-24.059-24.062-24.059H603.388
			c-13.296,0-24.062,10.773-24.062,24.059v97.889H14.439v48.119h588.949c13.28,0,24.062-10.77,24.062-24.057v-97.889h189.083v97.889
			c0,13.287,10.773,24.057,24.062,24.057h638.492c13.281,0,24.053-10.77,24.053-24.057v-97.889h189.09v97.889
			c0,13.287,10.773,24.057,24.064,24.057h638.972c13.297,0,24.062-10.77,24.062-24.057v-97.889h189.994v97.889
			c0,13.287,10.773,24.057,24.062,24.057h1167.209v-48.119H2617.439v-97.889C2617.439,987.411,2606.666,976.638,2593.385,976.638
			L2593.385,976.638z"/>
	</g>
</g>
</svg>
