<?xml version="1.0" encoding="utf-8"?>
<!-- Generator: Adobe Illustrator 16.0.4, SVG Export Plug-In . SVG Version: 6.00 Build 0)  -->
<!DOCTYPE svg PUBLIC "-//W3C//DTD SVG 1.1//EN" "http://www.w3.org/Graphics/SVG/1.1/DTD/svg11.dtd">
<svg version="1.1" id="Layer_1" xmlns="http://www.w3.org/2000/svg" xmlns:xlink="http://www.w3.org/1999/xlink" x="0px" y="0px"
     width="100%" height="100%" viewBox="0 0 91.025 30.223" enable-background="new 0 0 91.025 30.223" xml:space="preserve">
<g>
    <path fill="#034EA2" d="M90.969,7.196c1.24,7.106-18.105,16.412-43.213,20.785c-25.105,4.373-46.462,2.154-47.7-4.955
        C-1.181,15.919,18.169,6.616,43.274,2.244C68.38-2.131,89.733,0.088,90.969,7.196z"/>
</g>
<g>
    <polygon fill="#FFFFFF" points="67.34,17.745 67.211,10.356 69.541,10.356 69.541,19.669 66.191,19.669 63.866,12.026
        63.816,12.026 63.945,19.669 61.63,19.669 61.63,10.356 65.125,10.356 67.288,17.745   "/>
    <polygon fill="#FFFFFF" points="24.987,11.228 23.698,19.767 21.157,19.767 22.902,10.356 27.088,10.356 28.825,19.767
        26.294,19.767 25.04,11.228  "/>
    <polygon fill="#FFFFFF" points="35.962,17.55 37.125,10.356 40.963,10.356 41.167,19.767 38.815,19.767 38.753,11.306
        38.704,11.306 37.131,19.767 34.743,19.767 33.169,11.306 33.118,11.306 33.059,19.767 30.702,19.767 30.91,10.356 34.75,10.356
        35.912,17.55    "/>
    <path fill="#FFFFFF" d="M17.194,17.112c0.093,0.229,0.064,0.521,0.021,0.698c-0.079,0.313-0.291,0.632-0.917,0.632
        c-0.59,0-0.948-0.338-0.948-0.854v-0.911h-2.523l-0.002,0.729c0,2.098,1.651,2.73,3.422,2.73c1.702,0,3.104-0.582,3.327-2.15
        c0.113-0.812,0.028-1.345-0.011-1.546c-0.396-1.97-3.969-2.558-4.234-3.659c-0.045-0.189-0.032-0.39-0.011-0.496
        c0.065-0.301,0.271-0.632,0.86-0.632c0.55,0,0.875,0.341,0.875,0.854c0,0.173,0,0.581,0,0.581H19.4v-0.661
        c0-2.05-1.84-2.37-3.173-2.37c-1.674,0-3.042,0.553-3.292,2.085c-0.067,0.423-0.078,0.8,0.021,1.272
        C13.367,15.337,16.71,15.894,17.194,17.112z"/>
    <path fill="#FFFFFF" d="M47.796,17.095c0.093,0.226,0.062,0.511,0.021,0.688c-0.076,0.312-0.287,0.626-0.908,0.626
        c-0.582,0-0.938-0.339-0.938-0.844l-0.002-0.902h-2.498l-0.003,0.719c0,2.077,1.637,2.704,3.389,2.704
        c1.685,0,3.073-0.574,3.292-2.128c0.114-0.808,0.033-1.332-0.008-1.529c-0.395-1.952-3.931-2.534-4.194-3.625
        c-0.045-0.188-0.031-0.386-0.009-0.487c0.067-0.302,0.27-0.625,0.853-0.625c0.545,0,0.862,0.332,0.862,0.843
        c0,0.171,0,0.574,0,0.574h2.329v-0.653c0-2.028-1.824-2.347-3.145-2.347c-1.655,0-3.012,0.547-3.257,2.067
        c-0.068,0.417-0.075,0.787,0.021,1.257C44.007,15.336,47.317,15.889,47.796,17.095z"/>
    <path fill="#FFFFFF" d="M55.701,18.359c0.652,0,0.856-0.451,0.901-0.683c0.02-0.102,0.024-0.238,0.022-0.36v-6.964h2.38v6.751
        c0.005,0.173-0.012,0.529-0.021,0.618c-0.167,1.757-1.556,2.327-3.284,2.327c-1.731,0-3.121-0.57-3.286-2.327
        c-0.009-0.089-0.025-0.445-0.021-0.618v-6.751h2.378v6.964c0,0.122,0.004,0.26,0.022,0.36
        C54.845,17.907,55.043,18.359,55.701,18.359z"/>
    <path fill="#FFFFFF" d="M75.333,18.26c0.682,0,0.92-0.431,0.964-0.682c0.017-0.108,0.021-0.239,0.021-0.358v-1.366h-0.966V14.48
        h3.337v2.526c-0.002,0.176-0.006,0.306-0.034,0.62c-0.156,1.712-1.642,2.323-3.31,2.323c-1.671,0-3.154-0.611-3.312-2.323
        c-0.027-0.314-0.031-0.444-0.034-0.62L72,13.043c0-0.167,0.021-0.463,0.039-0.62c0.209-1.759,1.635-2.325,3.306-2.325
        c1.669,0,3.13,0.563,3.303,2.325c0.031,0.3,0.021,0.62,0.021,0.62v0.313h-2.373V12.83c0.002,0.001-0.003-0.225-0.031-0.358
        c-0.04-0.208-0.221-0.686-0.938-0.686c-0.687,0-0.888,0.451-0.938,0.686c-0.029,0.124-0.04,0.292-0.04,0.444v4.304
        c-0.002,0.119,0.005,0.25,0.024,0.358C74.415,17.83,74.652,18.26,75.333,18.26z"/>
</g>
</svg>
