<?xml version="1.0" encoding="utf-8"?>
<!-- Generator: Adobe Illustrator 16.0.4, SVG Export Plug-In . SVG Version: 6.00 Build 0)  -->
<!DOCTYPE svg PUBLIC "-//W3C//DTD SVG 1.1//EN" "http://www.w3.org/Graphics/SVG/1.1/DTD/svg11.dtd">
<svg version="1.1" id="Layer_1" xmlns="http://www.w3.org/2000/svg" xmlns:xlink="http://www.w3.org/1999/xlink" x="0px" y="0px"
     width="83.564px" height="83.564px" viewBox="0 0 83.564 83.564" enable-background="new 0 0 83.564 83.564" xml:space="preserve">
<circle fill="#070406" cx="41.782" cy="41.782" r="41.782"/>
<circle fill="#ECA427" cx="41.782" cy="41.782" r="39.643"/>
<g>
    <path fill="#ECA427" d="M55.044,61.471c0.29-0.66,0.664-1.832,0.468-3.13c0,0-0.904-2.311,3.319-0.77c0,0,10.562,1.852,9.655-3.699
        c0,0-0.1-0.928-0.219-1.686c-0.029-0.17-0.186-0.578-0.289-0.75c-0.312-0.517-0.642-1.654,1.715-2.5c0,0,0.455-1.078-0.151-1.541
        c0,0,1.207-1.234,0.151-2.775c0,0-1.358-2.772,1.207-2.93c0,0,2.715,0,0.752-4.162c0,0-2.562-4.316-3.618-5.395
        c0,0-1.207-0.464-0.453-1.851c0,0,0.89-2.41,0.149-6.012c0,0-2.793-13.465-12.219-15.109c0,0-5.984-0.975-11.57-0.261
        c0,0-8.5,0.343-13.321,11.206c0,0-2.306,5.033,0.905,14.339c0,0,3.968,11.517,1.81,19.73c0,0-1.228,5.144-11.033,13.931
        l-0.098,4.016l34.718,0.281c0,0-3.822-3.734-3.822-6.51c0,0-0.377-2.306,1.157-3.533L55.044,61.471z"/>
    <path fill="#ECA427" d="M55.018,60.708c0.287-0.662,0.662-1.832,0.465-3.131c0,0-0.904-2.311,3.32-0.77
        c0,0,10.561,1.85,9.655-3.699c0,0-0.101-0.924-0.22-1.687c-0.028-0.168-0.186-0.575-0.29-0.752c-0.31-0.514-0.64-1.651,1.717-2.496
        c0,0,0.452-1.08-0.151-1.543c0,0,1.207-1.233,0.151-2.773c0,0-1.358-2.774,1.207-2.928c0,0,2.714,0,0.754-4.163
        c0,0-2.563-4.316-3.622-5.396c0,0-1.207-0.464-0.453-1.851c0,0,0.891-2.41,0.151-6.013c0,0-2.795-13.463-12.222-15.108
        c0,0-5.982-0.974-11.57-0.262c0,0-8.5,0.344-13.323,11.206c0,0-2.305,5.032,0.905,14.34c0,0,3.97,11.515,1.812,19.732
        c0,0-1.195,5.127-11.001,13.914l-0.077,4.023l31.961,0.287c0,0-1.119-3.734-1.119-6.511c0,0-0.377-2.307,1.156-3.53L55.018,60.708z
        "/>
    <path fill="#ECA427" d="M51.718,60.026c0.269-0.615,0.616-1.703,0.433-2.91c0,0-0.84-2.146,3.084-0.713
        c0,0,9.814,1.719,8.973-3.439c0,0-0.094-0.86-0.205-1.563c-0.025-0.158-0.171-0.537-0.268-0.697
        c-0.291-0.479-0.596-1.537,1.593-2.32c0,0,0.422-1.004-0.14-1.434c0,0,1.121-1.146,0.14-2.576c0,0-1.261-2.579,1.123-2.725
        c0,0,2.522,0,0.698-3.867c0,0-2.381-4.008-3.362-5.011c0,0-1.123-0.432-0.421-1.721c0,0,0.828-2.238,0.141-5.586
        c0,0-2.597-12.506-11.355-14.034c0,0-5.558-0.906-10.75-0.245c0,0-7.896,0.318-12.376,10.413c0,0-2.141,4.675,0.84,13.32
        c0,0,3.688,10.698,1.682,18.333c0,0-2.815,4.777-11.925,12.943l-0.091,3.729l33.933,0.263c0,0-3.553-3.474-3.553-6.05
        c0,0-0.351-2.143,1.075-3.282L51.718,60.026z"/>
    <path fill="#FFFFFF" d="M52.878,57.542c0.272-0.629,0.626-1.735,0.438-2.965c0,0-0.855-2.188,3.146-0.729c0,0,10,1.75,9.144-3.507
        c0,0-0.097-0.875-0.209-1.594c-0.025-0.162-0.174-0.547-0.273-0.709c-0.294-0.49-0.605-1.567,1.626-2.367
        c0,0,0.428-1.021-0.144-1.461c0,0,1.143-1.168,0.144-2.627c0,0-1.287-2.628,1.142-2.773c0,0,2.571,0,0.713-3.94
        c0,0-2.428-4.088-3.428-5.11c0,0-1.142-0.437-0.428-1.752c0,0,0.842-2.28,0.143-5.691c0,0-2.646-12.746-11.572-14.308
        c0,0-5.664-0.922-10.957-0.245c0,0-8.047,0.32-12.614,10.608c0,0-2.183,4.767,0.859,13.578c0,0,3.757,10.904,1.712,18.688
        c0,0-1.129,5.061-10.416,13.383l-0.073,3.602l30.264,0.275c0,0-1.06-3.541-1.06-6.166c0,0-0.355-2.187,1.097-3.349L52.878,57.542z"
        />
    <path fill="#FFFFFF" d="M54.958,59.788c0.272-0.629,0.629-1.74,0.44-2.973c0,0-0.857-2.195,3.153-0.732
        c0,0,10.029,1.76,9.171-3.514c0,0-0.097-0.879-0.209-1.598c-0.025-0.164-0.176-0.548-0.271-0.714
        c-0.299-0.489-0.611-1.569,1.628-2.373c0,0,0.43-1.024-0.146-1.467c0,0,1.146-1.17,0.146-2.632c0,0-1.29-2.637,1.146-2.782
        c0,0,2.58,0,0.715-3.953c0,0-2.435-4.1-3.438-5.122c0,0-1.146-0.44-0.43-1.757c0,0,0.845-2.289,0.144-5.711
        c0,0-2.653-12.785-11.606-14.347c0,0-5.682-0.925-10.986-0.249c0,0-8.072,0.326-12.651,10.642c0,0-2.189,4.778,0.86,13.616
        c0,0,3.769,10.937,1.718,18.74c0,0-6.101,5.188-15.412,13.533L18.84,70.18l35.333-0.013c0,0-1.062-3.547-1.062-6.182
        c0,0-0.359-2.189,1.099-3.353L54.958,59.788z"/>
    <path fill="#FFFFFF" d="M50.357,58.966c0.275-0.639,0.635-1.76,0.445-3.008c0,0-0.869-2.221,3.191-0.737
        c0,0,10.148,1.776,9.279-3.558c0,0-0.097-0.891-0.211-1.619c-0.025-0.164-0.176-0.555-0.277-0.721
        c-0.301-0.496-0.616-1.59,1.648-2.402c0,0,0.436-1.037-0.146-1.479c0,0,1.161-1.188,0.146-2.67c0,0-1.306-2.666,1.16-2.814
        c0,0,2.609,0,0.723-3.999c0,0-2.463-4.147-3.479-5.185c0,0-1.16-0.445-0.434-1.778c0,0,0.854-2.314,0.145-5.78
        c0,0-2.688-12.937-11.747-14.519c0,0-5.75-0.938-11.12-0.253c1.026-0.039-9.194,2.639-12.802,10.771c0,0-2.216,4.836,0.87,13.779
        c0,0,3.814,11.068,1.739,18.967c0,0-1.148,4.927-10.574,13.373L18.841,69.2l30.718,0.273c0,0-1.076-3.586-1.076-6.255
        c0,0-0.36-2.219,1.115-3.396L50.357,58.966z"/>
    <path fill="#010101" d="M52.527,59.177c0.27-0.614,0.617-1.7,0.434-2.907c0,0-0.839-2.148,3.086-0.713c0,0,9.812,1.719,8.971-3.439
        c0,0-0.095-0.861-0.205-1.563c-0.024-0.158-0.172-0.539-0.269-0.699c-0.289-0.479-0.596-1.535,1.595-2.32
        c0,0,0.42-1.002-0.143-1.434c0,0,1.123-1.146,0.143-2.578c0,0-1.262-2.576,1.121-2.724c0,0,2.521,0,0.7-3.865
        c0,0-2.383-4.011-3.364-5.014c0,0-1.121-0.429-0.42-1.719c0,0,0.827-2.238,0.139-5.586c0,0-2.594-12.506-11.354-14.035
        c0,0-5.559-0.904-10.75-0.244c0,0-7.896,0.318-12.377,10.41c0,0-2.143,4.678,0.84,13.324c0,0,3.688,10.699,1.683,18.332
        c0,0-1.111,4.764-10.221,12.928l-0.072,3.74l29.696,0.266c0,0-1.039-3.471-1.039-6.049c0,0-0.351-2.141,1.075-3.281L52.527,59.177z
        "/>
</g>
<circle fill="#FFFFFF" cx="62.052" cy="29.5" r="0.983"/>
<circle fill="#FFFFFF" cx="60.496" cy="25.239" r="0.983"/>
<circle fill="#FFFFFF" cx="59.268" cy="19.095" r="0.983"/>
<circle fill="#FFFFFF" cx="53.863" cy="15.737" r="0.983"/>
<circle fill="#FFFFFF" cx="48.785" cy="14.919" r="0.983"/>
<circle fill="#FFFFFF" cx="40.103" cy="14.591" r="0.983"/>
<circle fill="#FFFFFF" cx="38.218" cy="16.231" r="0.982"/>
<circle fill="#FFFFFF" cx="34.86" cy="18.196" r="0.983"/>
<circle fill="#FFFFFF" cx="32.403" cy="23.683" r="0.983"/>
<circle fill="#FFFFFF" cx="33.468" cy="36.625" r="0.983"/>
<circle fill="#FFFFFF" cx="42.887" cy="44.606" r="0.983"/>
<circle fill="#FFFFFF" cx="50.34" cy="41.375" r="0.984"/>
<circle fill="#FFFFFF" cx="54.684" cy="40.72" r="0.982"/>
<circle fill="#FFFFFF" cx="56.32" cy="37.443" r="0.983"/>
<g>

        <rect x="43.166" y="22.875" transform="matrix(0.0145 -0.9999 0.9999 0.0145 19.5968 73.0383)" fill="#EDEFEF" width="7.366" height="7.407"/>
    <g>
        <path fill="#FFFFFF" d="M50.786,29.545l0.082-5.813c0.009-0.608-0.478-1.112-1.089-1.12l-5.812-0.084
            c-0.615-0.01-1.115,0.48-1.125,1.09l-0.083,5.812c-0.009,0.611,0.479,1.115,1.095,1.125l5.812,0.082
            C50.273,30.646,50.777,30.155,50.786,29.545L50.786,29.545z M43.117,29.437l0.084-5.815c0.003-0.409,0.346-0.74,0.76-0.736
            l5.812,0.084c0.412,0.005,0.746,0.347,0.738,0.759l-0.08,5.812c-0.009,0.415-0.351,0.746-0.763,0.741l-5.812-0.083
            C43.443,30.191,43.111,29.85,43.117,29.437L43.117,29.437z"/>
        <path fill="#FFFFFF" d="M49.025,31.247l-0.014,1.07c0,0.098,0.077,0.182,0.176,0.183c0.098,0.001,0.182-0.079,0.183-0.175
            l0.015-1.073c0.002-0.099-0.078-0.179-0.177-0.181S49.029,31.148,49.025,31.247L49.025,31.247z"/>
        <path fill="#FFFFFF" d="M48.395,32.31l0.015-1.071c0.001-0.099-0.076-0.18-0.175-0.182c-0.102,0-0.182,0.08-0.183,0.176
            l-0.015,1.072c-0.001,0.098,0.076,0.183,0.175,0.184C48.312,32.489,48.393,32.408,48.395,32.31L48.395,32.31z"/>
        <path fill="#FFFFFF" d="M47.398,32.296l0.018-1.069c0-0.103-0.078-0.183-0.178-0.186c-0.094-0.001-0.18,0.08-0.18,0.18
            l-0.015,1.069c-0.002,0.099,0.077,0.182,0.175,0.183C47.318,32.474,47.398,32.396,47.398,32.296L47.398,32.296z"/>
        <path fill="#FFFFFF" d="M46.425,32.281l0.015-1.071c0.002-0.099-0.078-0.18-0.176-0.182c-0.1-0.002-0.18,0.078-0.181,0.176
            l-0.017,1.072c0,0.098,0.078,0.182,0.177,0.184C46.342,32.46,46.424,32.379,46.425,32.281L46.425,32.281z"/>
        <path fill="#FFFFFF" d="M45.525,32.27l0.016-1.072c0.001-0.097-0.076-0.18-0.178-0.182c-0.098,0-0.18,0.078-0.182,0.177
            l-0.015,1.073c-0.002,0.097,0.077,0.18,0.176,0.181S45.523,32.366,45.525,32.27L45.525,32.27z"/>
        <path fill="#FFFFFF" d="M44.55,32.254l0.017-1.07c0.002-0.098-0.076-0.182-0.176-0.182c-0.098-0.001-0.183,0.077-0.185,0.178
            l-0.017,1.069c0,0.099,0.082,0.183,0.181,0.186C44.469,32.436,44.55,32.352,44.55,32.254L44.55,32.254z"/>
        <path fill="#FFFFFF" d="M49.52,21.75l0.016-1.068c0.002-0.099-0.079-0.183-0.178-0.183c-0.096-0.002-0.178,0.077-0.181,0.177
            l-0.013,1.069c-0.002,0.103,0.077,0.181,0.175,0.181C49.436,21.929,49.518,21.852,49.52,21.75L49.52,21.75z"/>
        <path fill="#FFFFFF" d="M48.544,21.735l0.015-1.068c0.002-0.098-0.076-0.18-0.176-0.182c-0.098-0.003-0.178,0.078-0.179,0.177
            l-0.015,1.068c-0.002,0.102,0.076,0.182,0.174,0.184C48.464,21.914,48.542,21.836,48.544,21.735L48.544,21.735z"/>
        <path fill="#FFFFFF" d="M47.549,21.724l0.016-1.07c0-0.098-0.076-0.181-0.176-0.182c-0.096-0.001-0.18,0.076-0.181,0.177
            l-0.015,1.068c-0.002,0.102,0.076,0.182,0.174,0.183C47.468,21.901,47.549,21.823,47.549,21.724L47.549,21.724z"/>
        <path fill="#FFFFFF" d="M46.577,21.707l0.014-1.067c0.001-0.1-0.077-0.182-0.177-0.183s-0.178,0.079-0.18,0.177l-0.016,1.068
            c-0.002,0.103,0.075,0.181,0.176,0.183C46.493,21.888,46.574,21.81,46.577,21.707L46.577,21.707z"/>
        <path fill="#FFFFFF" d="M45.677,21.695l0.015-1.069c0.002-0.098-0.078-0.18-0.178-0.182c-0.099-0.002-0.179,0.078-0.181,0.177
            l-0.015,1.069c-0.002,0.102,0.078,0.181,0.175,0.182C45.594,21.874,45.675,21.796,45.677,21.695L45.677,21.695z"/>
        <path fill="#FFFFFF" d="M44.702,21.684l0.015-1.07c0-0.098-0.078-0.181-0.177-0.183c-0.099-0.001-0.183,0.076-0.185,0.179
            l-0.016,1.067c0,0.101,0.081,0.18,0.178,0.182C44.619,21.858,44.701,21.782,44.702,21.684L44.702,21.684z"/>
        <path fill="#FFFFFF" d="M42.12,28.923c0.001-0.096-0.078-0.176-0.178-0.178l-1.069-0.016c-0.1-0.001-0.18,0.078-0.181,0.175
            c-0.001,0.101,0.077,0.18,0.176,0.181l1.068,0.018C42.035,29.104,42.118,29.026,42.12,28.923L42.12,28.923z"/>
        <path fill="#FFFFFF" d="M42.132,27.948c0.002-0.097-0.075-0.18-0.177-0.181l-1.068-0.018c-0.1-0.002-0.18,0.082-0.182,0.179
            c-0.001,0.1,0.076,0.184,0.176,0.185l1.07,0.016C42.05,28.13,42.131,28.05,42.132,27.948L42.132,27.948z"/>
        <path fill="#FFFFFF" d="M42.146,26.956c0.002-0.096-0.076-0.181-0.176-0.182l-1.07-0.017c-0.1-0.002-0.179,0.081-0.183,0.177
            c0,0.101,0.078,0.182,0.177,0.184l1.068,0.016C42.064,27.135,42.146,27.057,42.146,26.956L42.146,26.956z"/>
        <path fill="#FFFFFF" d="M42.161,25.982c0.001-0.101-0.078-0.184-0.176-0.184l-1.069-0.016c-0.1,0-0.182,0.079-0.182,0.177
            c-0.002,0.1,0.077,0.182,0.176,0.184l1.07,0.014C42.079,26.159,42.161,26.08,42.161,25.982L42.161,25.982z"/>
        <path fill="#FFFFFF" d="M42.174,25.082c0.001-0.098-0.078-0.183-0.177-0.183l-1.068-0.019c-0.102-0.001-0.181,0.079-0.182,0.181
            c-0.003,0.1,0.076,0.178,0.175,0.18l1.07,0.016C42.09,25.259,42.173,25.182,42.174,25.082L42.174,25.082z"/>
        <path fill="#FFFFFF" d="M42.188,24.106c0.002-0.099-0.076-0.181-0.176-0.182l-1.07-0.015c-0.1-0.002-0.181,0.078-0.182,0.176
            c-0.002,0.101,0.077,0.181,0.175,0.183l1.071,0.016C42.105,24.285,42.188,24.206,42.188,24.106L42.188,24.106z"/>
        <path fill="#FFFFFF" d="M51.264,29.054c-0.002,0.103,0.077,0.183,0.174,0.183l1.071,0.016c0.101,0.002,0.185-0.075,0.185-0.176
            c0-0.098-0.08-0.178-0.178-0.18l-1.072-0.017C51.346,28.878,51.266,28.956,51.264,29.054L51.264,29.054z"/>
        <path fill="#FFFFFF" d="M51.277,28.079c-0.004,0.103,0.078,0.185,0.176,0.186l1.072,0.014c0.098,0.002,0.182-0.077,0.182-0.179
            c0.002-0.097-0.079-0.182-0.178-0.183l-1.07-0.016C51.359,27.9,51.279,27.983,51.277,28.079L51.277,28.079z"/>
        <path fill="#FFFFFF" d="M51.29,27.087c-0.001,0.101,0.081,0.181,0.178,0.182l1.071,0.017c0.1,0.001,0.182-0.078,0.186-0.178
            c0-0.096-0.082-0.181-0.18-0.182l-1.072-0.017C51.375,26.908,51.292,26.99,51.29,27.087L51.29,27.087z"/>
        <path fill="#FFFFFF" d="M51.305,26.112c0,0.098,0.079,0.18,0.176,0.182l1.071,0.015c0.099,0.001,0.183-0.076,0.183-0.175
            c0.004-0.1-0.077-0.181-0.174-0.184l-1.074-0.016C51.389,25.936,51.307,26.014,51.305,26.112L51.305,26.112z"/>
        <path fill="#FFFFFF" d="M51.316,25.212c0,0.099,0.08,0.179,0.178,0.181l1.07,0.016c0.099,0.002,0.181-0.076,0.183-0.174
            s-0.079-0.184-0.179-0.186l-1.069-0.015C51.402,25.033,51.316,25.114,51.316,25.212L51.316,25.212z"/>
        <path fill="#FFFFFF" d="M51.332,24.238c-0.003,0.098,0.078,0.181,0.176,0.181l1.071,0.017c0.099,0.002,0.183-0.078,0.185-0.177
            c0-0.1-0.082-0.182-0.179-0.184l-1.069-0.014C51.415,24.061,51.333,24.141,51.332,24.238L51.332,24.238z"/>
        <path fill="#FFFFFF" d="M45.085,24.728l-0.051,3.701l3.735,0.054l0.053-3.701L45.085,24.728z M48.391,28.089l-2.965-0.042
            l0.041-2.93l2.967,0.044L48.391,28.089z"/>

            <radialGradient id="SVGID_1_" cx="46.7617" cy="57.5557" r="2.4101" gradientTransform="matrix(1 0 0 -1 0 83.998)" gradientUnits="userSpaceOnUse">
            <stop  offset="0.5255" style="stop-color:#262262"/>
            <stop  offset="0.8721" style="stop-color:#2E3192"/>
            <stop  offset="1" style="stop-color:#2E3192;stop-opacity:0.6"/>
        </radialGradient>
        <polygon fill="url(#SVGID_1_)" points="44.309,28.735 44.373,24.077 49.216,24.147 49.148,28.807      "/>
    </g>
</g>
<g>
    <polygon fill="#FFFFFF" points="45.624,22.526 45.762,18.38 48.295,18.196 48.341,15.8 48.848,15.755 48.848,18.749 46.223,18.889
        46.176,22.618   "/>
    <polygon fill="#FFFFFF" points="53.193,15.802 49.447,18.979 49.4,22.618 49.954,22.711 49.954,19.21 53.377,16.264    "/>
    <polygon fill="#FFFFFF" points="50.6,23.265 54.699,23.356 58.537,19.305 58.812,19.672 54.93,23.816 50.645,23.771    "/>
    <polygon fill="#FFFFFF" points="50.646,24.968 59.85,24.923 59.802,25.43 50.6,25.43  "/>
    <polygon fill="#FFFFFF" points="50.6,26.949 50.553,27.456 55.436,27.596 57.002,29.667 61.148,29.759 62.057,29.206
        57.232,29.161 55.712,27.134     "/>
    <polygon fill="#FFFFFF" points="50.566,29.07 56.325,34.276 56.417,36.902 55.911,36.856 55.818,34.554 50.475,29.716  "/>
    <polygon fill="#FFFFFF" points="50.23,30.358 50.184,33.998 52.948,36.302 52.855,38.743 54.344,40.126 53.977,40.495
        52.35,38.927 52.396,36.485 49.725,34.274 49.77,30.404   "/>
    <polygon fill="#FFFFFF" points="47.743,30.45 47.927,35.794 50.507,37.96 50.507,40.448 49.954,40.493 49.954,38.236
        47.374,35.979 47.236,30.312     "/>
    <polygon fill="#FFFFFF" points="45.577,30.312 45.484,36.163 43.137,38.56 43.137,43.719 42.583,43.812 42.583,38.282
        44.979,35.888 44.979,30.312     "/>
    <polygon fill="#FFFFFF" points="44.104,30.358 44.148,33.813 41.293,37.038 33.968,36.946 33.876,36.255 34.198,36.395
        41.017,36.485 43.598,33.63 43.55,30.405     "/>
    <polygon fill="#FFFFFF" points="43.012,30.038 37.423,29.854 37.147,23.909 33.047,23.862 33.047,23.266 37.607,23.356
        37.93,29.346 42.852,29.477  "/>
    <polygon fill="#FFFFFF" points="43.104,28.84 38.805,28.746 38.575,22.573 35.12,19.071 35.534,18.749 39.082,22.39 39.266,28.239
        43.057,28.379   "/>
    <polygon fill="#FFFFFF" points="42.859,23.816 40.049,23.816 39.727,18.335 38.437,16.952 38.759,16.538 40.279,18.104
        40.556,23.311 42.859,23.311     "/>
    <polygon fill="#FFFFFF" points="43.55,22.573 43.55,18.611 40.464,15.434 40.786,14.926 44.104,18.52 44.104,22.527    "/>
</g>
</svg>
