<?xml version="1.0" encoding="utf-8"?>
<!-- Generator: Adobe Illustrator 16.0.4, SVG Export Plug-In . SVG Version: 6.00 Build 0)  -->
<!DOCTYPE svg PUBLIC "-//W3C//DTD SVG 1.1//EN" "http://www.w3.org/Graphics/SVG/1.1/DTD/svg11.dtd">
<svg version="1.1" id="Layer_1" xmlns="http://www.w3.org/2000/svg" xmlns:xlink="http://www.w3.org/1999/xlink" x="0px" y="0px"
     width="100%" height="100%" viewBox="0 0 524.905 83.564" enable-background="new 0 0 524.905 83.564"
     xml:space="preserve">
<g>
    <path fill="#FFFFFF" d="M91.289,16.258h-9.39v-5.613h24.699v5.613h-9.39v26.434h-5.92V16.258z"/>
    <path fill="#FFFFFF" d="M107.976,10.645h5.307v10.461h0.102c0.748-1.156,1.777-2.075,3.087-2.756
        c1.309-0.68,2.798-1.021,4.465-1.021c1.292,0,2.517,0.255,3.674,0.765c1.156,0.51,2.177,1.234,3.062,2.169
        c0.884,0.936,1.582,2.05,2.092,3.343c0.51,1.293,0.766,2.688,0.766,4.185v14.901h-5.307V28.964c0-2.177-0.519-3.776-1.557-4.797
        c-1.038-1.021-2.475-1.531-4.312-1.531c-1.77,0-3.224,0.544-4.363,1.633c-1.14,1.089-1.709,2.62-1.709,4.593v13.83h-5.307V10.645z"
        />
    <path fill="#FFFFFF" d="M158.037,37.333c-1.498,1.872-3.24,3.334-5.23,4.389s-4.075,1.598-6.251,1.633
        c-2.076,0-3.964-0.357-5.665-1.072c-1.702-0.714-3.147-1.692-4.337-2.935c-1.191-1.241-2.092-2.645-2.705-4.21
        c-0.612-1.564-0.919-3.164-0.919-4.797c0-1.633,0.307-3.231,0.919-4.797c0.612-1.564,1.513-2.968,2.705-4.21
        c1.19-1.242,2.636-2.22,4.337-2.935c1.701-0.714,3.589-1.071,5.665-1.071c1.36,0,2.781,0.28,4.261,0.842s2.875,1.421,4.185,2.577
        c1.309,1.157,2.364,2.62,3.164,4.389c0.799,1.77,1.2,3.794,1.2,6.073v0.97h-20.515c0.135,1.837,0.952,3.376,2.449,4.618
        c1.497,1.242,3.198,1.863,5.104,1.863c2.857,0,5.238-1.276,7.144-3.828L158.037,37.333z M153.138,27.791
        c-0.544-1.871-1.472-3.3-2.781-4.287c-1.31-0.986-2.815-1.48-4.516-1.48c-1.702,0-3.182,0.51-4.44,1.531
        c-1.259,1.021-2.11,2.433-2.551,4.236H153.138z"/>
    <path fill="#FFFFFF" d="M179.469,16.258h-9.39v-5.613h24.699v5.613h-9.39v26.434h-5.92V16.258z"/>
    <path fill="#FFFFFF" d="M214.17,37.333c-1.498,1.872-3.24,3.334-5.23,4.389s-4.075,1.598-6.251,1.633
        c-2.076,0-3.964-0.357-5.665-1.072c-1.702-0.714-3.147-1.692-4.337-2.935c-1.191-1.241-2.092-2.645-2.705-4.21
        c-0.612-1.564-0.919-3.164-0.919-4.797c0-1.633,0.307-3.231,0.919-4.797c0.612-1.564,1.513-2.968,2.705-4.21
        c1.19-1.242,2.636-2.22,4.337-2.935c1.701-0.714,3.589-1.071,5.665-1.071c1.36,0,2.781,0.28,4.261,0.842s2.875,1.421,4.185,2.577
        c1.309,1.157,2.364,2.62,3.164,4.389c0.799,1.77,1.2,3.794,1.2,6.073v0.97h-20.515c0.135,1.837,0.952,3.376,2.449,4.618
        c1.497,1.242,3.198,1.863,5.104,1.863c2.857,0,5.238-1.276,7.144-3.828L214.17,37.333z M209.271,27.791
        c-0.544-1.871-1.472-3.3-2.781-4.287c-1.31-0.986-2.815-1.48-4.516-1.48c-1.702,0-3.182,0.51-4.44,1.531
        c-1.259,1.021-2.11,2.433-2.551,4.236H209.271z"/>
    <path fill="#FFFFFF" d="M236.113,26.056c-0.749-1.19-1.65-2.109-2.705-2.755c-1.055-0.646-2.296-0.97-3.725-0.97
        c-2.28,0-4.185,0.774-5.715,2.322c-1.531,1.548-2.296,3.445-2.296,5.69c0,2.246,0.765,4.143,2.296,5.69
        c1.531,1.548,3.436,2.322,5.715,2.322c1.395,0,2.628-0.323,3.7-0.97c1.072-0.646,1.981-1.564,2.73-2.756l4.644,2.756
        c-1.123,1.769-2.671,3.207-4.644,4.312c-1.973,1.105-4.117,1.659-6.43,1.659c-2.076,0-3.964-0.357-5.665-1.072
        c-1.702-0.714-3.147-1.692-4.337-2.935c-1.191-1.241-2.092-2.645-2.705-4.21c-0.613-1.564-0.919-3.164-0.919-4.797
        c0-1.633,0.306-3.231,0.919-4.797c0.612-1.564,1.513-2.968,2.705-4.21c1.19-1.242,2.636-2.22,4.337-2.935
        c1.701-0.714,3.589-1.071,5.665-1.071c2.483,0,4.626,0.528,6.43,1.582c1.803,1.055,3.351,2.518,4.644,4.389L236.113,26.056z"/>
    <path fill="#FFFFFF" d="M242.39,10.645h5.307v10.461h0.102c0.748-1.156,1.777-2.075,3.087-2.756
        c1.309-0.68,2.798-1.021,4.465-1.021c1.292,0,2.517,0.255,3.674,0.765c1.156,0.51,2.177,1.234,3.062,2.169
        c0.884,0.936,1.582,2.05,2.092,3.343c0.51,1.293,0.766,2.688,0.766,4.185v14.901h-5.307V28.964c0-2.177-0.519-3.776-1.557-4.797
        c-1.038-1.021-2.475-1.531-4.312-1.531c-1.77,0-3.224,0.544-4.363,1.633c-1.14,1.089-1.709,2.62-1.709,4.593v13.83h-5.307V10.645z"
        />
    <path fill="#FFFFFF" d="M269.997,29.066h-3.827v-5.613h3.827V10.645h5.919v12.809h2.194l10.768-12.809h7.4l-12.35,14.135
        l12.809,17.912h-7.553l-9.339-13.625h-3.93v13.625h-5.919V29.066z"/>
    <path fill="#FFFFFF" d="M297.043,17.993h5.308v3.113h0.102c0.748-1.156,1.777-2.075,3.088-2.756
        c1.309-0.68,2.797-1.021,4.465-1.021c1.293,0,2.518,0.255,3.674,0.765s2.178,1.234,3.062,2.169c0.884,0.936,1.582,2.05,2.092,3.343
        c0.51,1.293,0.766,2.688,0.766,4.185v14.901h-5.307V28.964c0-2.177-0.52-3.776-1.557-4.797c-1.039-1.021-2.476-1.531-4.312-1.531
        c-1.77,0-3.224,0.544-4.363,1.633c-1.141,1.089-1.709,2.62-1.709,4.593v13.83h-5.308V17.993z"/>
    <path fill="#FFFFFF" d="M322.507,25.545c0.612-1.564,1.514-2.968,2.705-4.21c1.189-1.242,2.635-2.22,4.337-2.935
        c1.7-0.714,3.589-1.071,5.665-1.071c2.074,0,3.963,0.357,5.664,1.071c1.701,0.715,3.146,1.693,4.338,2.935
        c1.189,1.242,2.092,2.646,2.704,4.21c0.612,1.565,0.919,3.164,0.919,4.797c0,1.633-0.307,3.232-0.919,4.797
        c-0.612,1.565-1.515,2.969-2.704,4.21c-1.191,1.243-2.637,2.22-4.338,2.935s-3.59,1.072-5.664,1.072
        c-2.076,0-3.965-0.357-5.665-1.072c-1.702-0.714-3.147-1.692-4.337-2.935c-1.191-1.241-2.093-2.645-2.705-4.21
        c-0.613-1.564-0.919-3.164-0.919-4.797C321.588,28.709,321.894,27.111,322.507,25.545z M329.498,36.032
        c1.53,1.548,3.436,2.322,5.716,2.322c2.312,0,4.227-0.774,5.74-2.322c1.514-1.547,2.271-3.444,2.271-5.69
        c0-2.245-0.758-4.142-2.271-5.69c-1.514-1.548-3.428-2.322-5.74-2.322c-2.28,0-4.186,0.774-5.716,2.322
        c-1.531,1.548-2.296,3.445-2.296,5.69C327.202,32.588,327.967,34.485,329.498,36.032z"/>
    <path fill="#FFFFFF" d="M347.716,17.993h5.715l4.389,13.37h0.103l5.154-11.839l5.153,11.839h0.103l4.389-13.37h5.716l-9.543,25.363
        l-5.767-13.37h-0.103l-5.766,13.37L347.716,17.993z"/>
    <path fill="#FFFFFF" d="M392.316,33.404c1.259,1.327,2.704,2.382,4.337,3.164c1.634,0.783,3.352,1.173,5.154,1.173
        c2.313-0.033,4.168-0.467,5.562-1.301c1.395-0.833,2.093-1.998,2.093-3.496c0-0.714-0.204-1.318-0.612-1.812
        c-0.408-0.493-0.97-0.875-1.684-1.148c-0.715-0.272-1.515-0.485-2.398-0.638c-0.886-0.153-1.99-0.332-3.318-0.536
        c-2.074-0.272-3.742-0.544-5-0.816c-1.26-0.272-2.484-0.715-3.675-1.327s-2.151-1.497-2.883-2.653
        c-0.732-1.156-1.097-2.62-1.097-4.389c0-1.395,0.339-2.687,1.02-3.878c0.681-1.19,1.633-2.22,2.857-3.087
        c1.226-0.868,2.646-1.531,4.262-1.99c1.615-0.459,3.325-0.689,5.129-0.689c5.307,0,9.56,1.633,12.758,4.899l-4.389,3.93
        c-1.396-1.395-2.79-2.381-4.185-2.96c-1.396-0.578-2.892-0.868-4.491-0.868c-2.245,0-3.93,0.442-5.052,1.327
        c-1.122,0.885-1.685,1.888-1.685,3.011c0,0.714,0.205,1.31,0.613,1.786c0.408,0.477,0.961,0.851,1.658,1.123
        c0.697,0.272,1.471,0.485,2.322,0.638c0.85,0.153,1.99,0.315,3.418,0.485c1.939,0.273,3.572,0.544,4.899,0.816
        c1.327,0.273,2.585,0.714,3.776,1.327c1.19,0.612,2.151,1.505,2.883,2.679c0.732,1.174,1.098,2.663,1.098,4.465
        c0,1.633-0.383,3.113-1.148,4.44c-0.766,1.327-1.811,2.458-3.139,3.394c-1.326,0.936-2.84,1.65-4.541,2.143s-3.471,0.74-5.308,0.74
        c-2.416,0-4.831-0.485-7.246-1.455c-2.416-0.97-4.576-2.458-6.481-4.465L392.316,33.404z"/>
    <path fill="#FFFFFF" d="M423.496,21.004h0.103c0.951-1.191,2.125-2.101,3.521-2.73c1.395-0.629,2.926-0.944,4.593-0.944
        c1.939,0,3.708,0.366,5.308,1.097c1.599,0.732,2.96,1.718,4.083,2.959c1.122,1.243,1.973,2.646,2.551,4.21
        c0.578,1.565,0.867,3.147,0.867,4.746c0,1.531-0.306,3.071-0.918,4.618c-0.613,1.549-1.498,2.96-2.654,4.236
        s-2.543,2.289-4.158,3.036c-1.617,0.748-3.395,1.123-5.333,1.123c-1.77,0-3.343-0.341-4.721-1.021s-2.424-1.564-3.138-2.653h-0.103
        v11.533h-5.308V17.993h5.308V21.004z M438.295,27.255c-0.408-0.97-0.978-1.828-1.71-2.577c-0.731-0.748-1.573-1.327-2.525-1.735
        c-0.953-0.408-1.957-0.612-3.011-0.612c-1.021,0-1.999,0.204-2.935,0.612s-1.77,0.987-2.5,1.735
        c-0.732,0.749-1.302,1.607-1.71,2.577s-0.612,1.999-0.612,3.087c0,1.089,0.204,2.118,0.612,3.087s0.978,1.829,1.71,2.577
        c0.73,0.749,1.564,1.327,2.5,1.735s1.914,0.613,2.935,0.613c1.054,0,2.058-0.205,3.011-0.613c0.952-0.408,1.794-0.986,2.525-1.735
        c0.732-0.748,1.302-1.607,1.71-2.577s0.612-1.998,0.612-3.087C438.907,29.254,438.703,28.225,438.295,27.255z"/>
    <path fill="#FFFFFF" d="M465.698,39.681h-0.102c-0.852,1.123-1.998,2.016-3.445,2.679c-1.445,0.663-3.002,0.995-4.668,0.995
        c-1.939,0-3.709-0.366-5.308-1.097c-1.6-0.731-2.96-1.718-4.083-2.96c-1.123-1.242-1.973-2.645-2.551-4.21
        c-0.58-1.564-0.868-3.146-0.868-4.746c0-1.531,0.306-3.07,0.919-4.618c0.612-1.548,1.496-2.96,2.653-4.236
        c1.156-1.275,2.552-2.288,4.185-3.036c1.633-0.748,3.4-1.123,5.307-1.123c1.77,0,3.344,0.34,4.721,1.021
        c1.379,0.681,2.424,1.565,3.139,2.654h0.102v-3.011h5.309v24.699h-5.309V39.681z M450.899,33.43c0.408,0.97,0.979,1.829,1.71,2.577
        c0.731,0.749,1.573,1.327,2.526,1.735c0.951,0.408,1.955,0.613,3.01,0.613c1.021,0,2.008-0.205,2.961-0.613
        c0.951-0.408,1.785-0.986,2.5-1.735c0.715-0.748,1.275-1.607,1.684-2.577s0.613-1.998,0.613-3.087c0-1.088-0.205-2.118-0.613-3.087
        s-0.969-1.828-1.684-2.577c-0.715-0.748-1.549-1.327-2.5-1.735c-0.953-0.408-1.939-0.612-2.961-0.612
        c-1.055,0-2.059,0.204-3.01,0.612c-0.953,0.408-1.795,0.987-2.526,1.735c-0.731,0.749-1.302,1.607-1.71,2.577
        s-0.611,1.999-0.611,3.087C450.288,31.432,450.491,32.46,450.899,33.43z"/>
    <path fill="#FFFFFF" d="M493.052,26.056c-0.748-1.19-1.65-2.109-2.705-2.755c-1.055-0.646-2.297-0.97-3.725-0.97
        c-2.279,0-4.186,0.774-5.717,2.322c-1.529,1.548-2.295,3.445-2.295,5.69c0,2.246,0.766,4.143,2.295,5.69
        c1.531,1.548,3.438,2.322,5.717,2.322c1.395,0,2.627-0.323,3.699-0.97c1.072-0.646,1.982-1.564,2.73-2.756l4.645,2.756
        c-1.123,1.769-2.672,3.207-4.645,4.312c-1.975,1.105-4.117,1.659-6.43,1.659c-2.076,0-3.965-0.357-5.664-1.072
        c-1.703-0.714-3.148-1.692-4.338-2.935c-1.191-1.241-2.094-2.645-2.705-4.21c-0.613-1.564-0.918-3.164-0.918-4.797
        c0-1.633,0.305-3.231,0.918-4.797c0.611-1.564,1.514-2.968,2.705-4.21c1.189-1.242,2.635-2.22,4.338-2.935
        c1.699-0.714,3.588-1.071,5.664-1.071c2.482,0,4.625,0.528,6.43,1.582c1.803,1.055,3.35,2.518,4.645,4.389L493.052,26.056z"/>
    <path fill="#FFFFFF" d="M523.007,37.333c-1.498,1.872-3.242,3.334-5.232,4.389s-4.074,1.598-6.25,1.633
        c-2.076,0-3.965-0.357-5.664-1.072c-1.703-0.714-3.148-1.692-4.338-2.935c-1.191-1.241-2.094-2.645-2.705-4.21
        c-0.613-1.564-0.918-3.164-0.918-4.797c0-1.633,0.305-3.231,0.918-4.797c0.611-1.564,1.514-2.968,2.705-4.21
        c1.189-1.242,2.635-2.22,4.338-2.935c1.699-0.714,3.588-1.071,5.664-1.071c1.359,0,2.781,0.28,4.26,0.842
        c1.48,0.562,2.875,1.421,4.186,2.577c1.309,1.157,2.363,2.62,3.164,4.389c0.799,1.77,1.199,3.794,1.199,6.073v0.97h-20.516
        c0.137,1.837,0.953,3.376,2.451,4.618c1.496,1.242,3.197,1.863,5.102,1.863c2.859,0,5.24-1.276,7.145-3.828L523.007,37.333z
         M518.106,27.791c-0.545-1.871-1.471-3.3-2.781-4.287c-1.309-0.986-2.814-1.48-4.516-1.48s-3.182,0.51-4.439,1.531
        c-1.26,1.021-2.109,2.433-2.553,4.236H518.106z"/>
</g>
<polyline fill="#ECA427" points="56.623,69.742 56.623,47.895 524.815,47.895 524.815,74.602 61.2,74.602 "/>
<polyline fill="#FFFFFF" points="524.905,50.795 71.491,50.795 71.491,47.824 524.865,47.824 "/>
<g>
    <path fill="#FFFFFF" d="M139.179,58.322h-4.34v-2.894h11.817v2.894h-4.34v11.369h-3.138V58.322z"/>
    <path fill="#FFFFFF" d="M153.909,69.936c-0.815,0-1.572-0.136-2.271-0.407c-0.7-0.271-1.304-0.658-1.813-1.161
        s-0.907-1.097-1.192-1.783c-0.285-0.686-0.428-1.449-0.428-2.292v-0.041c0-0.773,0.132-1.508,0.397-2.2
        c0.265-0.692,0.635-1.297,1.11-1.813c0.476-0.516,1.042-0.923,1.702-1.223c0.659-0.298,1.389-0.448,2.19-0.448
        c0.91,0,1.698,0.163,2.364,0.489c0.665,0.326,1.219,0.765,1.66,1.314s0.768,1.182,0.978,1.895s0.316,1.457,0.316,2.231
        c0,0.122-0.003,0.251-0.01,0.387s-0.017,0.278-0.03,0.428h-7.6c0.149,0.707,0.458,1.24,0.927,1.6c0.469,0.36,1.049,0.54,1.742,0.54
        c0.516,0,0.978-0.088,1.385-0.265c0.408-0.177,0.829-0.462,1.263-0.856l1.773,1.569c-0.517,0.639-1.141,1.138-1.875,1.497
        C155.763,69.756,154.901,69.936,153.909,69.936z M155.906,63.375c-0.095-0.692-0.339-1.253-0.733-1.681s-0.917-0.642-1.569-0.642
        c-0.652,0-1.178,0.211-1.579,0.632c-0.4,0.421-0.662,0.984-0.784,1.69H155.906z"/>
    <path fill="#FFFFFF" d="M166.378,69.936c-0.815,0-1.572-0.149-2.271-0.448c-0.7-0.298-1.301-0.702-1.803-1.212
        s-0.896-1.107-1.182-1.793s-0.428-1.416-0.428-2.19v-0.041c0-0.773,0.143-1.508,0.428-2.2s0.679-1.297,1.182-1.813
        c0.502-0.516,1.104-0.923,1.803-1.223c0.699-0.298,1.47-0.448,2.312-0.448c1.032,0,1.888,0.163,2.567,0.489
        c0.679,0.326,1.276,0.774,1.793,1.345l-1.895,2.038c-0.354-0.367-0.717-0.659-1.09-0.877c-0.374-0.217-0.839-0.325-1.396-0.325
        c-0.394,0-0.75,0.078-1.069,0.234c-0.319,0.156-0.598,0.37-0.835,0.642c-0.238,0.271-0.421,0.587-0.55,0.947
        c-0.129,0.36-0.193,0.743-0.193,1.151v0.04c0,0.422,0.064,0.815,0.193,1.182c0.129,0.367,0.316,0.687,0.561,0.958
        c0.244,0.271,0.536,0.486,0.876,0.642c0.339,0.156,0.72,0.234,1.141,0.234c0.516,0,0.968-0.104,1.354-0.315
        c0.387-0.211,0.771-0.492,1.151-0.846l1.813,1.834c-0.53,0.584-1.134,1.062-1.813,1.437
        C168.348,69.749,167.465,69.936,166.378,69.936z"/>
    <path fill="#FFFFFF" d="M172.857,54.818h3.097v5.514c0.176-0.232,0.37-0.455,0.581-0.667s0.445-0.4,0.703-0.564
        c0.258-0.164,0.543-0.294,0.855-0.39s0.666-0.145,1.06-0.145c1.182,0,2.095,0.36,2.741,1.08c0.645,0.721,0.968,1.712,0.968,2.975
        v7.07h-3.097v-6.077c0-0.731-0.163-1.284-0.489-1.656c-0.326-0.372-0.788-0.56-1.386-0.56s-1.07,0.188-1.416,0.56
        s-0.52,0.925-0.52,1.656v6.077h-3.097V54.818z"/>
    <path fill="#FFFFFF" d="M185.55,58.771h3.097v1.562c0.176-0.232,0.37-0.455,0.581-0.667s0.445-0.4,0.703-0.564
        c0.258-0.164,0.543-0.294,0.855-0.39s0.666-0.145,1.06-0.145c1.182,0,2.095,0.36,2.741,1.08c0.645,0.721,0.968,1.712,0.968,2.975
        v7.07h-3.097v-6.077c0-0.731-0.163-1.284-0.489-1.656c-0.326-0.372-0.788-0.56-1.386-0.56s-1.07,0.188-1.416,0.56
        s-0.52,0.925-0.52,1.656v6.077h-3.097V58.771z"/>
    <path fill="#FFFFFF" d="M203.603,69.936c-0.842,0-1.624-0.146-2.343-0.438c-0.72-0.292-1.341-0.693-1.864-1.202
        c-0.523-0.51-0.934-1.107-1.232-1.793c-0.299-0.686-0.448-1.423-0.448-2.211v-0.041c0-0.787,0.149-1.524,0.448-2.21
        c0.298-0.687,0.713-1.287,1.243-1.804c0.53-0.516,1.154-0.923,1.875-1.223c0.72-0.298,1.508-0.448,2.363-0.448
        c0.842,0,1.623,0.146,2.343,0.438c0.72,0.292,1.341,0.692,1.864,1.202c0.522,0.51,0.934,1.107,1.232,1.793s0.448,1.423,0.448,2.211
        v0.04c0,0.788-0.149,1.525-0.448,2.211c-0.299,0.687-0.713,1.287-1.243,1.804c-0.53,0.516-1.155,0.924-1.875,1.222
        C205.246,69.786,204.458,69.936,203.603,69.936z M203.643,67.267c0.448,0,0.846-0.078,1.192-0.234
        c0.347-0.155,0.642-0.37,0.886-0.642c0.245-0.271,0.431-0.587,0.561-0.947c0.129-0.359,0.193-0.744,0.193-1.151v-0.041
        c0-0.407-0.068-0.791-0.204-1.15c-0.136-0.36-0.333-0.68-0.591-0.958c-0.258-0.278-0.564-0.499-0.917-0.662
        s-0.74-0.244-1.161-0.244c-0.448,0-0.846,0.078-1.192,0.234c-0.347,0.156-0.642,0.37-0.886,0.642
        c-0.245,0.271-0.432,0.587-0.561,0.947c-0.129,0.36-0.193,0.743-0.193,1.151v0.04c0,0.408,0.068,0.792,0.204,1.151
        c0.136,0.36,0.333,0.68,0.591,0.958c0.258,0.278,0.561,0.499,0.907,0.662S203.208,67.267,203.643,67.267z"/>
    <path fill="#FFFFFF" d="M211.915,54.818h3.097v14.873h-3.097V54.818z"/>
    <path fill="#FFFFFF" d="M223.284,69.936c-0.842,0-1.624-0.146-2.343-0.438c-0.72-0.292-1.341-0.693-1.864-1.202
        c-0.523-0.51-0.934-1.107-1.232-1.793c-0.299-0.686-0.448-1.423-0.448-2.211v-0.041c0-0.787,0.149-1.524,0.448-2.21
        c0.298-0.687,0.713-1.287,1.243-1.804c0.53-0.516,1.154-0.923,1.875-1.223c0.72-0.298,1.508-0.448,2.363-0.448
        c0.842,0,1.623,0.146,2.343,0.438c0.72,0.292,1.341,0.692,1.864,1.202c0.522,0.51,0.934,1.107,1.232,1.793s0.448,1.423,0.448,2.211
        v0.04c0,0.788-0.149,1.525-0.448,2.211c-0.299,0.687-0.713,1.287-1.243,1.804c-0.53,0.516-1.155,0.924-1.875,1.222
        C224.927,69.786,224.139,69.936,223.284,69.936z M223.324,67.267c0.448,0,0.846-0.078,1.192-0.234
        c0.347-0.155,0.642-0.37,0.886-0.642c0.245-0.271,0.431-0.587,0.561-0.947c0.129-0.359,0.193-0.744,0.193-1.151v-0.041
        c0-0.407-0.068-0.791-0.204-1.15c-0.136-0.36-0.333-0.68-0.591-0.958c-0.258-0.278-0.564-0.499-0.917-0.662
        s-0.74-0.244-1.161-0.244c-0.448,0-0.846,0.078-1.192,0.234c-0.347,0.156-0.642,0.37-0.886,0.642
        c-0.245,0.271-0.432,0.587-0.561,0.947c-0.129,0.36-0.193,0.743-0.193,1.151v0.04c0,0.408,0.068,0.792,0.204,1.151
        c0.136,0.36,0.333,0.68,0.591,0.958c0.258,0.278,0.561,0.499,0.907,0.662S222.89,67.267,223.324,67.267z"/>
    <path fill="#FFFFFF" d="M236.344,72.992c-0.896,0-1.752-0.099-2.567-0.296c-0.815-0.196-1.569-0.479-2.261-0.845l1.059-2.323
        c0.571,0.312,1.145,0.557,1.722,0.733s1.233,0.265,1.966,0.265c1.06,0,1.844-0.251,2.354-0.754
        c0.509-0.502,0.764-1.242,0.764-2.221v-0.529c-0.462,0.557-0.964,0.991-1.507,1.304c-0.543,0.312-1.229,0.469-2.058,0.469
        c-0.639,0-1.25-0.112-1.833-0.336c-0.584-0.225-1.101-0.554-1.549-0.988s-0.805-0.968-1.069-1.6
        c-0.265-0.632-0.397-1.354-0.397-2.17V63.66c0-0.814,0.136-1.538,0.408-2.17c0.271-0.631,0.631-1.164,1.08-1.599
        s0.964-0.765,1.548-0.988c0.584-0.225,1.188-0.337,1.813-0.337c0.842,0,1.535,0.156,2.078,0.469s1.025,0.7,1.447,1.162v-1.427
        h3.097v8.455c0,1.943-0.462,3.376-1.386,4.3c-0.516,0.516-1.165,0.89-1.946,1.12C238.323,72.877,237.403,72.992,236.344,72.992z
         M236.71,66.228c0.38,0,0.733-0.061,1.06-0.184c0.326-0.122,0.608-0.295,0.846-0.52c0.237-0.224,0.424-0.492,0.56-0.805
        s0.204-0.651,0.204-1.019V63.66c0-0.366-0.068-0.706-0.204-1.019s-0.323-0.58-0.56-0.805c-0.238-0.224-0.52-0.397-0.846-0.52
        s-0.679-0.184-1.06-0.184s-0.73,0.062-1.049,0.184c-0.319,0.122-0.598,0.296-0.835,0.52c-0.238,0.225-0.424,0.492-0.56,0.805
        c-0.136,0.312-0.204,0.652-0.204,1.019v0.041c0,0.761,0.251,1.372,0.753,1.834S235.95,66.228,236.71,66.228z"/>
    <path fill="#FFFFFF" d="M247.814,73.013c-0.571,0-1.073-0.068-1.508-0.204c-0.435-0.136-0.849-0.319-1.243-0.55l1.039-2.241
        c0.204,0.122,0.425,0.224,0.663,0.306c0.237,0.081,0.458,0.122,0.662,0.122c0.271,0,0.485-0.051,0.642-0.153
        c0.156-0.102,0.302-0.288,0.438-0.56l-4.278-10.962h3.28l2.485,7.437l2.384-7.437h3.219L251.4,69.956
        c-0.204,0.557-0.421,1.029-0.652,1.416c-0.231,0.388-0.486,0.703-0.764,0.947c-0.279,0.245-0.595,0.421-0.948,0.53
        C248.683,72.958,248.276,73.013,247.814,73.013z"/>
    <path fill="#FFFFFF" d="M263.869,55.429h3.382L271,61.46l3.749-6.031h3.383v14.263h-3.098V60.38l-4.014,6.093h-0.082l-3.973-6.031
        v9.25h-3.097V55.429z"/>
    <path fill="#FFFFFF" d="M286.403,69.936c-0.814,0-1.572-0.136-2.271-0.407s-1.305-0.658-1.813-1.161s-0.907-1.097-1.192-1.783
        c-0.285-0.686-0.428-1.449-0.428-2.292v-0.041c0-0.773,0.133-1.508,0.397-2.2s0.635-1.297,1.11-1.813
        c0.476-0.516,1.043-0.923,1.701-1.223c0.659-0.298,1.389-0.448,2.19-0.448c0.91,0,1.698,0.163,2.364,0.489
        c0.664,0.326,1.219,0.765,1.66,1.314s0.768,1.182,0.978,1.895s0.315,1.457,0.315,2.231c0,0.122-0.003,0.251-0.01,0.387
        s-0.018,0.278-0.03,0.428h-7.601c0.15,0.707,0.459,1.24,0.928,1.6c0.469,0.36,1.049,0.54,1.742,0.54
        c0.516,0,0.979-0.088,1.385-0.265c0.408-0.177,0.829-0.462,1.264-0.856l1.773,1.569c-0.518,0.639-1.142,1.138-1.875,1.497
        C288.257,69.756,287.396,69.936,286.403,69.936z M288.399,63.375c-0.094-0.692-0.339-1.253-0.732-1.681
        c-0.395-0.428-0.917-0.642-1.569-0.642c-0.651,0-1.179,0.211-1.579,0.632s-0.662,0.984-0.784,1.69H288.399z"/>
    <path fill="#FFFFFF" d="M298.894,69.936c-0.815,0-1.572-0.136-2.271-0.407c-0.7-0.271-1.305-0.658-1.814-1.161
        c-0.509-0.503-0.906-1.097-1.191-1.783c-0.285-0.686-0.428-1.449-0.428-2.292v-0.041c0-0.773,0.133-1.508,0.396-2.2
        c0.266-0.692,0.635-1.297,1.111-1.813c0.475-0.516,1.042-0.923,1.701-1.223c0.658-0.298,1.389-0.448,2.189-0.448
        c0.91,0,1.698,0.163,2.364,0.489c0.665,0.326,1.219,0.765,1.66,1.314s0.768,1.182,0.978,1.895c0.211,0.713,0.316,1.457,0.316,2.231
        c0,0.122-0.004,0.251-0.01,0.387c-0.008,0.136-0.018,0.278-0.031,0.428h-7.6c0.149,0.707,0.459,1.24,0.928,1.6
        c0.469,0.36,1.049,0.54,1.742,0.54c0.516,0,0.978-0.088,1.385-0.265c0.408-0.177,0.828-0.462,1.264-0.856l1.772,1.569
        c-0.517,0.639-1.142,1.138-1.874,1.497C300.747,69.756,299.885,69.936,298.894,69.936z M300.89,63.375
        c-0.095-0.692-0.34-1.253-0.733-1.681s-0.917-0.642-1.569-0.642c-0.651,0-1.178,0.211-1.578,0.632s-0.662,0.984-0.785,1.69H300.89z
        "/>
    <path fill="#FFFFFF" d="M309.896,69.875c-0.477,0-0.907-0.051-1.295-0.153c-0.387-0.102-0.719-0.281-0.998-0.54
        c-0.278-0.258-0.496-0.594-0.651-1.008c-0.157-0.414-0.234-0.94-0.234-1.579v-5.176h-1.304v-2.648h1.304v-2.791h3.097v2.791h2.567
        v2.648h-2.567v4.683c0,0.709,0.333,1.063,0.998,1.063c0.543,0,1.053-0.136,1.528-0.407v2.485c-0.325,0.19-0.687,0.343-1.079,0.458
        C310.866,69.816,310.411,69.875,309.896,69.875z"/>
    <path fill="#FFFFFF" d="M318.493,69.896c-0.773,0-1.565-0.133-2.373-0.397c-0.809-0.265-1.58-0.683-2.312-1.253l1.324-2.038
        c0.598,0.436,1.191,0.761,1.782,0.979c0.591,0.217,1.145,0.326,1.661,0.326c0.447,0,0.777-0.075,0.988-0.225
        c0.21-0.149,0.315-0.347,0.315-0.591v-0.041c0-0.163-0.062-0.306-0.184-0.428s-0.288-0.228-0.499-0.315
        c-0.211-0.089-0.451-0.174-0.724-0.255c-0.271-0.081-0.558-0.17-0.855-0.265c-0.38-0.108-0.765-0.241-1.151-0.397
        s-0.736-0.359-1.049-0.611c-0.312-0.251-0.567-0.561-0.764-0.927c-0.197-0.367-0.296-0.815-0.296-1.345v-0.041
        c0-0.557,0.104-1.049,0.315-1.478c0.211-0.428,0.496-0.791,0.855-1.09c0.36-0.299,0.781-0.522,1.264-0.672s1.002-0.225,1.559-0.225
        c0.693,0,1.396,0.112,2.109,0.336c0.713,0.225,1.367,0.533,1.966,0.928l-1.183,2.139c-0.543-0.312-1.072-0.56-1.588-0.743
        c-0.518-0.184-0.973-0.275-1.365-0.275c-0.381,0-0.666,0.071-0.856,0.214s-0.285,0.323-0.285,0.54v0.041
        c0,0.149,0.062,0.282,0.184,0.397s0.285,0.224,0.489,0.326c0.203,0.102,0.438,0.2,0.703,0.295c0.264,0.096,0.546,0.19,0.845,0.285
        c0.38,0.122,0.768,0.269,1.161,0.438c0.395,0.17,0.748,0.377,1.061,0.621c0.312,0.244,0.57,0.544,0.773,0.896
        c0.204,0.354,0.306,0.781,0.306,1.283v0.041c0,0.611-0.104,1.138-0.315,1.579s-0.506,0.805-0.887,1.09s-0.825,0.5-1.334,0.643
        C319.624,69.824,319.077,69.896,318.493,69.896z"/>
    <path fill="#FFFFFF" d="M331.329,55.429h3.138v6.235l5.786-6.235h3.79l-5.807,6.052l6.071,8.211h-3.77l-4.421-6.071l-1.65,1.711
        v4.36h-3.138V55.429z"/>
    <path fill="#FFFFFF" d="M345.876,58.771h3.098v1.562c0.176-0.232,0.369-0.455,0.58-0.667s0.445-0.4,0.703-0.564
        s0.543-0.294,0.855-0.39s0.666-0.145,1.06-0.145c1.182,0,2.095,0.36,2.741,1.08c0.645,0.721,0.967,1.712,0.967,2.975v7.07h-3.097
        v-6.077c0-0.731-0.163-1.284-0.489-1.656s-0.787-0.56-1.385-0.56s-1.07,0.188-1.416,0.56c-0.347,0.372-0.52,0.925-0.52,1.656v6.077
        h-3.098V58.771z"/>
    <path fill="#FFFFFF" d="M363.929,69.936c-0.843,0-1.624-0.146-2.344-0.438c-0.721-0.292-1.342-0.693-1.864-1.202
        c-0.522-0.51-0.935-1.107-1.232-1.793c-0.3-0.686-0.448-1.423-0.448-2.211v-0.041c0-0.787,0.148-1.524,0.448-2.21
        c0.298-0.687,0.713-1.287,1.243-1.804c0.529-0.516,1.154-0.923,1.874-1.223c0.72-0.298,1.508-0.448,2.363-0.448
        c0.843,0,1.623,0.146,2.343,0.438c0.721,0.292,1.342,0.692,1.865,1.202c0.521,0.51,0.934,1.107,1.232,1.793
        s0.447,1.423,0.447,2.211v0.04c0,0.788-0.148,1.525-0.447,2.211c-0.299,0.687-0.713,1.287-1.243,1.804
        c-0.53,0.516-1.155,0.924-1.874,1.222C365.571,69.786,364.784,69.936,363.929,69.936z M363.969,67.267
        c0.448,0,0.846-0.078,1.192-0.234c0.346-0.155,0.642-0.37,0.886-0.642c0.245-0.271,0.431-0.587,0.561-0.947
        c0.129-0.359,0.193-0.744,0.193-1.151v-0.041c0-0.407-0.067-0.791-0.204-1.15c-0.135-0.36-0.332-0.68-0.59-0.958
        c-0.259-0.278-0.564-0.499-0.918-0.662c-0.353-0.163-0.74-0.244-1.16-0.244c-0.449,0-0.846,0.078-1.192,0.234
        s-0.642,0.37-0.886,0.642c-0.245,0.271-0.432,0.587-0.561,0.947c-0.13,0.36-0.193,0.743-0.193,1.151v0.04
        c0,0.408,0.067,0.792,0.203,1.151c0.136,0.36,0.332,0.68,0.591,0.958c0.258,0.278,0.561,0.499,0.907,0.662
        C363.144,67.186,363.534,67.267,363.969,67.267z"/>
    <path fill="#FFFFFF" d="M371.201,58.771h3.138l1.752,6.622l2.059-6.663h2.669l2.078,6.684l1.793-6.643h3.077l-3.403,11.002h-2.791
        l-2.099-6.703l-2.14,6.703h-2.771L371.201,58.771z"/>
    <path fill="#FFFFFF" d="M389.783,54.818h3.097v14.873h-3.097V54.818z"/>
    <path fill="#FFFFFF" d="M400.968,69.936c-0.814,0-1.572-0.136-2.271-0.407s-1.304-0.658-1.812-1.161
        c-0.51-0.503-0.907-1.097-1.192-1.783c-0.285-0.686-0.428-1.449-0.428-2.292v-0.041c0-0.773,0.132-1.508,0.397-2.2
        c0.265-0.692,0.635-1.297,1.109-1.813c0.477-0.516,1.043-0.923,1.702-1.223c0.659-0.298,1.389-0.448,2.19-0.448
        c0.91,0,1.697,0.163,2.363,0.489c0.665,0.326,1.219,0.765,1.66,1.314s0.768,1.182,0.979,1.895c0.21,0.713,0.315,1.457,0.315,2.231
        c0,0.122-0.003,0.251-0.011,0.387c-0.006,0.136-0.017,0.278-0.029,0.428h-7.601c0.149,0.707,0.458,1.24,0.927,1.6
        c0.469,0.36,1.05,0.54,1.742,0.54c0.517,0,0.979-0.088,1.386-0.265s0.829-0.462,1.263-0.856l1.773,1.569
        c-0.517,0.639-1.141,1.138-1.875,1.497C402.822,69.756,401.96,69.936,400.968,69.936z M402.965,63.375
        c-0.095-0.692-0.339-1.253-0.733-1.681s-0.916-0.642-1.568-0.642s-1.179,0.211-1.58,0.632c-0.4,0.421-0.662,0.984-0.783,1.69
        H402.965z"/>
    <path fill="#FFFFFF" d="M412.765,69.896c-0.638,0-1.256-0.123-1.854-0.367s-1.127-0.607-1.589-1.09s-0.833-1.073-1.11-1.772
        c-0.279-0.699-0.418-1.505-0.418-2.415v-0.04c0-0.91,0.139-1.715,0.418-2.415c0.277-0.699,0.645-1.29,1.1-1.772
        c0.455-0.481,0.981-0.846,1.58-1.09c0.597-0.244,1.222-0.367,1.873-0.367c0.829,0,1.512,0.163,2.049,0.489
        c0.536,0.326,0.988,0.707,1.354,1.142v-5.379h3.097v14.873h-3.097v-1.569c-0.38,0.517-0.839,0.941-1.376,1.273
        C414.256,69.729,413.581,69.896,412.765,69.896z M413.56,67.267c0.367,0,0.71-0.071,1.029-0.214
        c0.318-0.143,0.598-0.347,0.836-0.611c0.236-0.265,0.428-0.584,0.57-0.957c0.143-0.374,0.213-0.785,0.213-1.233v-0.04
        c0-0.448-0.07-0.859-0.213-1.233c-0.143-0.373-0.334-0.692-0.57-0.957c-0.238-0.265-0.518-0.469-0.836-0.611
        c-0.319-0.143-0.662-0.214-1.029-0.214c-0.366,0-0.709,0.071-1.028,0.214s-0.601,0.347-0.846,0.611s-0.438,0.58-0.581,0.947
        s-0.213,0.781-0.213,1.243v0.04c0,0.448,0.07,0.859,0.213,1.233c0.143,0.373,0.336,0.692,0.581,0.957s0.526,0.469,0.846,0.611
        S413.193,67.267,413.56,67.267z"/>
    <path fill="#FFFFFF" d="M426.925,72.992c-0.896,0-1.752-0.099-2.566-0.296c-0.815-0.196-1.569-0.479-2.262-0.845l1.059-2.323
        c0.571,0.312,1.145,0.557,1.723,0.733c0.576,0.177,1.232,0.265,1.966,0.265c1.06,0,1.844-0.251,2.354-0.754
        c0.509-0.502,0.764-1.242,0.764-2.221v-0.529c-0.462,0.557-0.964,0.991-1.507,1.304c-0.544,0.312-1.23,0.469-2.059,0.469
        c-0.639,0-1.25-0.112-1.834-0.336c-0.584-0.225-1.1-0.554-1.549-0.988c-0.447-0.435-0.805-0.968-1.068-1.6
        c-0.266-0.632-0.398-1.354-0.398-2.17V63.66c0-0.814,0.137-1.538,0.408-2.17c0.271-0.631,0.631-1.164,1.08-1.599
        c0.447-0.435,0.964-0.765,1.548-0.988c0.584-0.225,1.188-0.337,1.813-0.337c0.842,0,1.535,0.156,2.078,0.469s1.025,0.7,1.447,1.162
        v-1.427h3.097v8.455c0,1.943-0.462,3.376-1.386,4.3c-0.516,0.516-1.165,0.89-1.945,1.12
        C428.905,72.877,427.985,72.992,426.925,72.992z M427.292,66.228c0.381,0,0.733-0.061,1.06-0.184
        c0.326-0.122,0.608-0.295,0.846-0.52c0.237-0.224,0.425-0.492,0.56-0.805c0.137-0.312,0.204-0.651,0.204-1.019V63.66
        c0-0.366-0.067-0.706-0.204-1.019c-0.135-0.312-0.322-0.58-0.56-0.805c-0.237-0.224-0.52-0.397-0.846-0.52s-0.679-0.184-1.06-0.184
        s-0.73,0.062-1.049,0.184c-0.32,0.122-0.598,0.296-0.836,0.52c-0.238,0.225-0.424,0.492-0.561,0.805
        c-0.136,0.312-0.203,0.652-0.203,1.019v0.041c0,0.761,0.251,1.372,0.754,1.834C425.899,65.997,426.531,66.228,427.292,66.228z"/>
    <path fill="#FFFFFF" d="M440.964,69.936c-0.815,0-1.572-0.136-2.271-0.407c-0.7-0.271-1.305-0.658-1.814-1.161
        c-0.509-0.503-0.906-1.097-1.191-1.783c-0.285-0.686-0.428-1.449-0.428-2.292v-0.041c0-0.773,0.133-1.508,0.396-2.2
        c0.266-0.692,0.635-1.297,1.111-1.813c0.475-0.516,1.042-0.923,1.701-1.223c0.658-0.298,1.389-0.448,2.189-0.448
        c0.91,0,1.698,0.163,2.364,0.489c0.665,0.326,1.219,0.765,1.66,1.314s0.768,1.182,0.978,1.895c0.211,0.713,0.316,1.457,0.316,2.231
        c0,0.122-0.004,0.251-0.01,0.387c-0.008,0.136-0.018,0.278-0.031,0.428h-7.6c0.149,0.707,0.459,1.24,0.928,1.6
        c0.469,0.36,1.049,0.54,1.742,0.54c0.516,0,0.978-0.088,1.385-0.265c0.408-0.177,0.828-0.462,1.264-0.856l1.772,1.569
        c-0.517,0.639-1.142,1.138-1.874,1.497C442.817,69.756,441.955,69.936,440.964,69.936z M442.96,63.375
        c-0.095-0.692-0.34-1.253-0.733-1.681s-0.917-0.642-1.569-0.642c-0.651,0-1.178,0.211-1.578,0.632s-0.662,0.984-0.785,1.69H442.96z
        "/>
</g>
<rect x="89.56" y="58.918" fill="#FFFFFF" width="7.756" height="7.756"/>
<rect x="507.741" y="58.918" fill="#FFFFFF" width="7.758" height="7.756"/>
<circle fill="#070406" cx="41.782" cy="41.783" r="41.782"/>
<circle fill="#ECA427" cx="41.782" cy="41.783" r="39.643"/>
<g>
    <path fill="#ECA427" d="M55.044,61.471c0.29-0.66,0.664-1.832,0.467-3.129c0,0-0.904-2.311,3.32-0.77c0,0,10.562,1.852,9.655-3.699
        c0,0-0.1-0.928-0.219-1.686c-0.028-0.17-0.185-0.578-0.289-0.75c-0.311-0.516-0.641-1.654,1.716-2.5c0,0,0.454-1.078-0.152-1.541
        c0,0,1.207-1.234,0.152-2.775c0,0-1.359-2.773,1.206-2.93c0,0,2.715,0,0.753-4.162c0,0-2.563-4.316-3.619-5.394
        c0,0-1.207-0.464-0.453-1.851c0,0,0.89-2.41,0.15-6.012c0,0-2.794-13.465-12.22-15.109c0,0-5.983-0.975-11.57-0.261
        c0,0-8.5,0.343-13.321,11.206c0,0-2.306,5.033,0.905,14.339c0,0,3.968,11.517,1.81,19.731c0,0-1.228,5.143-11.033,13.93
        l-0.098,4.016l34.718,0.281c0,0-3.823-3.734-3.823-6.51c0,0-0.376-2.305,1.158-3.533L55.044,61.471z"/>
    <path fill="#ECA427" d="M55.017,60.709c0.288-0.662,0.662-1.832,0.466-3.131c0,0-0.905-2.311,3.32-0.77
        c0,0,10.561,1.85,9.655-3.699c0,0-0.101-0.924-0.22-1.686c-0.028-0.168-0.185-0.576-0.29-0.752c-0.31-0.514-0.64-1.652,1.717-2.496
        c0,0,0.452-1.08-0.152-1.543c0,0,1.208-1.234,0.152-2.774c0,0-1.358-2.774,1.207-2.928c0,0,2.714,0,0.754-4.163
        c0,0-2.564-4.316-3.622-5.396c0,0-1.207-0.464-0.453-1.851c0,0,0.89-2.41,0.151-6.012c0,0-2.795-13.463-12.221-15.109
        c0,0-5.983-0.973-11.571-0.262c0,0-8.5,0.344-13.323,11.207c0,0-2.305,5.032,0.905,14.339c0,0,3.97,11.515,1.812,19.733
        c0,0-1.195,5.127-11.001,13.914l-0.077,4.023l31.962,0.287c0,0-1.119-3.734-1.119-6.51c0,0-0.377-2.307,1.156-3.531L55.017,60.709z
        "/>
    <path fill="#ECA427" d="M51.718,60.027c0.269-0.615,0.616-1.703,0.433-2.91c0,0-0.84-2.146,3.084-0.713
        c0,0,9.814,1.719,8.972-3.439c0,0-0.094-0.861-0.205-1.564c-0.025-0.158-0.171-0.537-0.268-0.697
        c-0.291-0.479-0.596-1.537,1.593-2.32c0,0,0.422-1.004-0.14-1.434c0,0,1.121-1.146,0.14-2.576c0,0-1.261-2.579,1.123-2.725
        c0,0,2.522,0,0.699-3.867c0,0-2.382-4.008-3.363-5.011c0,0-1.123-0.431-0.421-1.72c0,0,0.829-2.239,0.141-5.586
        c0,0-2.597-12.506-11.355-14.035c0,0-5.558-0.906-10.75-0.245c0,0-7.896,0.319-12.376,10.413c0,0-2.141,4.675,0.84,13.321
        c0,0,3.688,10.698,1.682,18.333c0,0-2.815,4.777-11.925,12.943l-0.091,3.729l33.933,0.262c0,0-3.553-3.473-3.553-6.049
        c0,0-0.35-2.143,1.076-3.283L51.718,60.027z"/>
    <path fill="#FFFFFF" d="M52.878,57.543c0.272-0.629,0.626-1.736,0.439-2.965c0,0-0.856-2.189,3.145-0.729c0,0,10,1.75,9.143-3.506
        c0,0-0.096-0.875-0.208-1.594c-0.026-0.162-0.175-0.547-0.274-0.709c-0.294-0.49-0.605-1.568,1.626-2.367
        c0,0,0.428-1.021-0.144-1.461c0,0,1.143-1.168,0.144-2.627c0,0-1.287-2.628,1.142-2.774c0,0,2.571,0,0.713-3.94
        c0,0-2.428-4.088-3.428-5.11c0,0-1.142-0.437-0.428-1.752c0,0,0.842-2.281,0.142-5.692c0,0-2.646-12.746-11.572-14.307
        c0,0-5.664-0.922-10.956-0.246c0,0-8.048,0.321-12.615,10.609c0,0-2.183,4.766,0.859,13.578c0,0,3.757,10.904,1.712,18.688
        c0,0-1.129,5.061-10.416,13.383l-0.073,3.602l30.264,0.275c0,0-1.06-3.541-1.06-6.166c0,0-0.355-2.186,1.097-3.348L52.878,57.543z"
        />
    <path fill="#FFFFFF" d="M54.958,59.789c0.272-0.629,0.629-1.74,0.441-2.973c0,0-0.858-2.195,3.153-0.732
        c0,0,10.029,1.76,9.171-3.514c0,0-0.097-0.879-0.21-1.598c-0.025-0.164-0.175-0.547-0.271-0.713
        c-0.298-0.49-0.611-1.57,1.628-2.373c0,0,0.43-1.025-0.145-1.467c0,0,1.146-1.17,0.145-2.632c0,0-1.29-2.637,1.145-2.782
        c0,0,2.58,0,0.716-3.953c0,0-2.435-4.1-3.438-5.123c0,0-1.146-0.44-0.43-1.756c0,0,0.845-2.289,0.144-5.711
        c0,0-2.654-12.785-11.606-14.347c0,0-5.682-0.925-10.987-0.249c0,0-8.072,0.326-12.651,10.642c0,0-2.189,4.778,0.86,13.616
        c0,0,3.769,10.936,1.718,18.74c0,0-6.101,5.188-15.412,13.533l-0.089,3.783l35.333-0.012c0,0-1.062-3.547-1.062-6.182
        c0,0-0.359-2.189,1.099-3.352L54.958,59.789z"/>
    <path fill="#FFFFFF" d="M50.357,58.967c0.276-0.639,0.635-1.76,0.446-3.008c0,0-0.869-2.221,3.191-0.738
        c0,0,10.149,1.777,9.28-3.557c0,0-0.097-0.891-0.211-1.619c-0.026-0.164-0.177-0.555-0.278-0.721
        c-0.3-0.496-0.616-1.59,1.649-2.402c0,0,0.435-1.037-0.147-1.48c0,0,1.161-1.187,0.147-2.67c0,0-1.306-2.666,1.16-2.814
        c0,0,2.609,0,0.723-3.999c0,0-2.463-4.148-3.479-5.185c0,0-1.16-0.445-0.434-1.778c0,0,0.854-2.315,0.145-5.78
        c0,0-2.687-12.937-11.747-14.519c0,0-5.75-0.937-11.12-0.253c1.026-0.039-9.194,2.639-12.802,10.771c0,0-2.216,4.836,0.87,13.779
        c0,0,3.814,11.068,1.739,18.967c0,0-1.148,4.926-10.574,13.373l-0.074,3.867l30.718,0.273c0,0-1.076-3.586-1.076-6.254
        c0,0-0.361-2.219,1.114-3.396L50.357,58.967z"/>
    <path fill="#010101" d="M52.528,59.178c0.269-0.615,0.616-1.701,0.433-2.908c0,0-0.839-2.148,3.086-0.713
        c0,0,9.812,1.719,8.97-3.439c0,0-0.094-0.861-0.205-1.564c-0.024-0.158-0.171-0.539-0.268-0.699
        c-0.289-0.479-0.596-1.535,1.595-2.32c0,0,0.42-1.002-0.143-1.434c0,0,1.123-1.146,0.143-2.578c0,0-1.262-2.576,1.121-2.723
        c0,0,2.521,0,0.7-3.866c0,0-2.383-4.01-3.365-5.013c0,0-1.12-0.429-0.419-1.719c0,0,0.827-2.238,0.139-5.586
        c0,0-2.595-12.506-11.354-14.035c0,0-5.558-0.904-10.75-0.244c0,0-7.896,0.318-12.377,10.41c0,0-2.143,4.678,0.84,13.324
        c0,0,3.688,10.699,1.683,18.332c0,0-1.111,4.764-10.221,12.928l-0.072,3.74l29.696,0.266c0,0-1.04-3.471-1.04-6.049
        c0,0-0.35-2.141,1.076-3.281L52.528,59.178z"/>
</g>
<circle fill="#FFFFFF" cx="62.052" cy="29.5" r="0.983"/>
<circle fill="#FFFFFF" cx="60.496" cy="25.24" r="0.983"/>
<circle fill="#FFFFFF" cx="59.268" cy="19.096" r="0.983"/>
<circle fill="#FFFFFF" cx="53.864" cy="15.738" r="0.983"/>
<circle fill="#FFFFFF" cx="48.785" cy="14.92" r="0.983"/>
<circle fill="#FFFFFF" cx="40.103" cy="14.592" r="0.983"/>
<circle fill="#FFFFFF" cx="38.218" cy="16.232" r="0.982"/>
<circle fill="#FFFFFF" cx="34.86" cy="18.197" r="0.983"/>
<circle fill="#FFFFFF" cx="32.403" cy="23.684" r="0.983"/>
<circle fill="#FFFFFF" cx="33.468" cy="36.625" r="0.983"/>
<circle fill="#FFFFFF" cx="42.887" cy="44.607" r="0.983"/>
<circle fill="#FFFFFF" cx="50.34" cy="41.375" r="0.984"/>
<circle fill="#FFFFFF" cx="54.683" cy="40.721" r="0.982"/>
<circle fill="#FFFFFF" cx="56.32" cy="37.444" r="0.983"/>
<g>

        <rect x="43.169" y="22.877" transform="matrix(-0.0145 0.9999 -0.9999 -0.0145 74.1064 -19.883)" fill="#EDEFEF" width="7.366" height="7.407"/>
    <g>
        <path fill="#FFFFFF" d="M50.786,29.546l0.082-5.814c0.009-0.608-0.478-1.112-1.089-1.12l-5.812-0.084
            c-0.615-0.01-1.116,0.481-1.125,1.09l-0.083,5.812c-0.009,0.612,0.48,1.116,1.094,1.125l5.813,0.082
            C50.274,30.647,50.777,30.156,50.786,29.546L50.786,29.546z M43.117,29.437l0.084-5.815c0.003-0.409,0.346-0.74,0.76-0.736
            l5.813,0.084c0.411,0.004,0.745,0.346,0.738,0.758l-0.081,5.813c-0.008,0.415-0.35,0.746-0.762,0.741l-5.812-0.083
            C43.443,30.192,43.111,29.85,43.117,29.437L43.117,29.437z M43.117,29.437"/>
        <path fill="#FFFFFF" d="M49.026,31.248l-0.014,1.07c-0.001,0.098,0.077,0.182,0.175,0.183s0.182-0.079,0.183-0.175l0.015-1.073
            c0.002-0.099-0.079-0.179-0.177-0.181C49.11,31.07,49.029,31.149,49.026,31.248L49.026,31.248z M49.026,31.248"/>
        <path fill="#FFFFFF" d="M48.394,32.31l0.015-1.071c0.001-0.099-0.076-0.18-0.175-0.182c-0.101,0-0.181,0.08-0.182,0.176
            l-0.015,1.072c-0.001,0.098,0.077,0.183,0.175,0.184C48.312,32.49,48.393,32.409,48.394,32.31L48.394,32.31z M48.394,32.31"/>
        <path fill="#FFFFFF" d="M47.398,32.297l0.018-1.07c0-0.102-0.078-0.182-0.177-0.185c-0.094-0.001-0.18,0.08-0.18,0.179
            l-0.015,1.07c-0.002,0.098,0.077,0.181,0.175,0.182C47.318,32.474,47.398,32.396,47.398,32.297L47.398,32.297z M47.398,32.297"/>
        <path fill="#FFFFFF" d="M46.425,32.282l0.015-1.071c0.001-0.099-0.079-0.18-0.177-0.182c-0.099-0.002-0.179,0.078-0.18,0.176
            l-0.016,1.072c0,0.098,0.078,0.182,0.176,0.184C46.342,32.461,46.424,32.38,46.425,32.282L46.425,32.282z M46.425,32.282"/>
        <path fill="#FFFFFF" d="M45.525,32.27l0.016-1.072c0.001-0.097-0.076-0.18-0.178-0.182c-0.097,0-0.18,0.079-0.181,0.177
            l-0.015,1.073c-0.002,0.097,0.077,0.18,0.176,0.181S45.524,32.367,45.525,32.27L45.525,32.27z M45.525,32.27"/>
        <path fill="#FFFFFF" d="M44.55,32.255l0.017-1.071c0.001-0.097-0.077-0.181-0.177-0.181c-0.097-0.001-0.182,0.077-0.184,0.177
            l-0.016,1.07c-0.001,0.098,0.082,0.182,0.18,0.185C44.469,32.436,44.55,32.352,44.55,32.255L44.55,32.255z M44.55,32.255"/>
        <path fill="#FFFFFF" d="M49.519,21.751l0.016-1.069c0.002-0.098-0.079-0.182-0.177-0.182c-0.096-0.002-0.178,0.077-0.181,0.177
            l-0.013,1.069c-0.002,0.102,0.077,0.181,0.175,0.181C49.436,21.929,49.518,21.852,49.519,21.751L49.519,21.751z M49.519,21.751"/>
        <path fill="#FFFFFF" d="M48.544,21.736l0.015-1.068c0.001-0.098-0.077-0.18-0.176-0.182c-0.098-0.003-0.178,0.078-0.179,0.177
            l-0.015,1.068c-0.002,0.102,0.076,0.182,0.175,0.184C48.464,21.915,48.542,21.837,48.544,21.736L48.544,21.736z M48.544,21.736"/>
        <path fill="#FFFFFF" d="M47.549,21.724l0.015-1.07c0.001-0.098-0.076-0.181-0.175-0.182c-0.096-0.001-0.18,0.077-0.181,0.177
            l-0.014,1.069c-0.002,0.101,0.075,0.181,0.173,0.182C47.468,21.902,47.549,21.824,47.549,21.724L47.549,21.724z M47.549,21.724"/>
        <path fill="#FFFFFF" d="M46.577,21.708l0.014-1.068c0.001-0.099-0.078-0.181-0.177-0.182c-0.099-0.001-0.178,0.079-0.179,0.177
            l-0.016,1.068c-0.002,0.102,0.075,0.181,0.175,0.183C46.493,21.888,46.574,21.81,46.577,21.708L46.577,21.708z M46.577,21.708"/>
        <path fill="#FFFFFF" d="M45.677,21.696l0.015-1.069c0.002-0.098-0.078-0.18-0.178-0.182c-0.099-0.002-0.179,0.078-0.181,0.177
            l-0.015,1.069c-0.001,0.102,0.078,0.181,0.175,0.182C45.594,21.875,45.675,21.797,45.677,21.696L45.677,21.696z M45.677,21.696"/>
        <path fill="#FFFFFF" d="M44.702,21.684l0.015-1.07c0-0.098-0.078-0.181-0.177-0.183c-0.098-0.001-0.183,0.077-0.184,0.179
            l-0.016,1.068c0,0.1,0.081,0.179,0.178,0.181C44.619,21.859,44.701,21.783,44.702,21.684L44.702,21.684z M44.702,21.684"/>
        <path fill="#FFFFFF" d="M42.12,28.924c0.001-0.096-0.078-0.176-0.178-0.178l-1.069-0.016c-0.1-0.001-0.18,0.078-0.181,0.175
            c-0.001,0.101,0.077,0.18,0.176,0.181l1.068,0.017C42.035,29.104,42.118,29.027,42.12,28.924L42.12,28.924z M42.12,28.924"/>
        <path fill="#FFFFFF" d="M42.132,27.949c0.002-0.097-0.076-0.18-0.177-0.181l-1.068-0.017c-0.1-0.002-0.18,0.082-0.182,0.178
            c-0.001,0.1,0.076,0.184,0.176,0.185l1.07,0.016C42.05,28.131,42.131,28.051,42.132,27.949L42.132,27.949z M42.132,27.949"/>
        <path fill="#FFFFFF" d="M42.147,26.957c0.001-0.096-0.077-0.181-0.177-0.182l-1.07-0.016c-0.1-0.002-0.179,0.081-0.183,0.176
            c0,0.101,0.078,0.182,0.177,0.184l1.068,0.016C42.065,27.136,42.146,27.057,42.147,26.957L42.147,26.957z M42.147,26.957"/>
        <path fill="#FFFFFF" d="M42.161,25.983c0.001-0.1-0.078-0.183-0.176-0.183l-1.069-0.016c-0.1,0-0.182,0.079-0.182,0.177
            c-0.002,0.099,0.077,0.181,0.176,0.183l1.07,0.014C42.079,26.16,42.161,26.081,42.161,25.983L42.161,25.983z M42.161,25.983"/>
        <path fill="#FFFFFF" d="M42.174,25.083c0.001-0.098-0.078-0.183-0.177-0.183l-1.068-0.018c-0.102-0.001-0.181,0.079-0.182,0.18
            c-0.003,0.1,0.076,0.178,0.175,0.18l1.07,0.016C42.09,25.26,42.173,25.182,42.174,25.083L42.174,25.083z M42.174,25.083"/>
        <path fill="#FFFFFF" d="M42.188,24.107c0.001-0.098-0.077-0.18-0.177-0.181l-1.069-0.015c-0.1-0.002-0.181,0.078-0.182,0.176
            c-0.002,0.1,0.077,0.18,0.175,0.182l1.071,0.016C42.105,24.286,42.187,24.207,42.188,24.107L42.188,24.107z M42.188,24.107"/>
        <path fill="#FFFFFF" d="M51.263,29.054c-0.002,0.103,0.078,0.183,0.175,0.183l1.071,0.016c0.1,0.002,0.184-0.075,0.184-0.176
            c0.001-0.098-0.079-0.178-0.178-0.18l-1.072-0.016C51.346,28.879,51.265,28.957,51.263,29.054L51.263,29.054z M51.263,29.054"/>
        <path fill="#FFFFFF" d="M51.278,28.08c-0.004,0.102,0.078,0.184,0.175,0.185l1.072,0.014c0.098,0.002,0.182-0.077,0.182-0.179
            c0.002-0.096-0.079-0.181-0.177-0.182l-1.071-0.016C51.36,27.901,51.279,27.984,51.278,28.08L51.278,28.08z M51.278,28.08"/>
        <path fill="#FFFFFF" d="M51.29,27.088c-0.001,0.1,0.081,0.18,0.178,0.181l1.071,0.017c0.099,0.001,0.182-0.078,0.185-0.178
            c0-0.096-0.081-0.18-0.179-0.181l-1.072-0.017C51.375,26.909,51.292,26.991,51.29,27.088L51.29,27.088z M51.29,27.088"/>
        <path fill="#FFFFFF" d="M51.305,26.113c0,0.098,0.079,0.18,0.175,0.182l1.072,0.014c0.098,0.001,0.183-0.076,0.183-0.174
            c0.003-0.1-0.078-0.181-0.175-0.184l-1.073-0.016C51.389,25.936,51.307,26.014,51.305,26.113L51.305,26.113z M51.305,26.113"/>
        <path fill="#FFFFFF" d="M51.317,25.213c-0.001,0.098,0.08,0.178,0.177,0.18l1.071,0.016c0.098,0.002,0.18-0.076,0.182-0.174
            s-0.079-0.183-0.178-0.185l-1.07-0.015C51.402,25.034,51.317,25.115,51.317,25.213L51.317,25.213z M51.317,25.213"/>
        <path fill="#FFFFFF" d="M51.332,24.239c-0.003,0.098,0.078,0.181,0.176,0.181l1.071,0.016c0.099,0.002,0.182-0.078,0.185-0.176
            c0-0.1-0.082-0.182-0.179-0.184l-1.07-0.014C51.415,24.061,51.333,24.141,51.332,24.239L51.332,24.239z M51.332,24.239"/>
        <path fill="#FFFFFF" d="M45.085,24.728l-0.051,3.701l3.736,0.054l0.052-3.701L45.085,24.728z M48.391,28.09l-2.965-0.042
            l0.041-2.93l2.967,0.044L48.391,28.09z M48.391,28.09"/>
        <radialGradient id="SVGID_1_" cx="46.7617" cy="26.4424" r="2.4096" gradientUnits="userSpaceOnUse">
            <stop  offset="0.5255" style="stop-color:#262262"/>
            <stop  offset="0.8721" style="stop-color:#2E3192"/>
            <stop  offset="1" style="stop-color:#2E3192;stop-opacity:0.6"/>
        </radialGradient>
        <polygon fill="url(#SVGID_1_)" points="44.308,28.736 44.373,24.078 49.216,24.148 49.148,28.807      "/>
    </g>
</g>
<g>
    <polygon fill="#FFFFFF" points="45.624,22.527 45.762,18.381 48.295,18.197 48.341,15.801 48.848,15.756 48.848,18.75
        46.222,18.889 46.176,22.619     "/>
    <polygon fill="#FFFFFF" points="53.193,15.803 49.447,18.98 49.401,22.619 49.954,22.712 49.954,19.211 53.377,16.264  "/>
    <polygon fill="#FFFFFF" points="50.599,23.265 54.699,23.357 58.537,19.305 58.813,19.673 54.929,23.817 50.645,23.771     "/>
    <polygon fill="#FFFFFF" points="50.646,24.969 59.85,24.924 59.802,25.43 50.599,25.43    "/>
    <polygon fill="#FFFFFF" points="50.599,26.95 50.553,27.457 55.436,27.596 57.002,29.668 61.149,29.76 62.057,29.207
        57.233,29.162 55.712,27.135     "/>
    <polygon fill="#FFFFFF" points="50.566,29.071 56.325,34.277 56.417,36.903 55.911,36.857 55.818,34.554 50.475,29.717     "/>
    <polygon fill="#FFFFFF" points="50.23,30.359 50.184,33.999 52.948,36.303 52.856,38.744 54.344,40.127 53.976,40.496
        52.35,38.928 52.396,36.486 49.724,34.275 49.77,30.405   "/>
    <polygon fill="#FFFFFF" points="47.743,30.451 47.927,35.795 50.507,37.961 50.507,40.449 49.954,40.494 49.954,38.237
        47.374,35.98 47.236,30.313  "/>
    <polygon fill="#FFFFFF" points="45.577,30.313 45.485,36.164 43.136,38.56 43.136,43.72 42.583,43.812 42.583,38.283
        44.979,35.888 44.979,30.313     "/>
    <polygon fill="#FFFFFF" points="44.104,30.359 44.149,33.814 41.293,37.039 33.968,36.947 33.876,36.256 34.198,36.395
        41.017,36.486 43.597,33.631 43.55,30.406    "/>
    <polygon fill="#FFFFFF" points="43.011,30.039 37.423,29.854 37.147,23.91 33.047,23.863 33.047,23.266 37.607,23.357
        37.93,29.346 42.851,29.477  "/>
    <polygon fill="#FFFFFF" points="43.103,28.841 38.805,28.747 38.575,22.574 35.12,19.072 35.534,18.75 39.082,22.39 39.266,28.24
        43.057,28.38    "/>
    <polygon fill="#FFFFFF" points="42.859,23.817 40.049,23.817 39.727,18.336 38.437,16.953 38.759,16.539 40.279,18.105
        40.556,23.311 42.859,23.311     "/>
    <polygon fill="#FFFFFF" points="43.55,22.574 43.55,18.612 40.464,15.434 40.786,14.927 44.104,18.52 44.104,22.528    "/>
</g>
<g>
</g>
<g>
</g>
<g>
</g>
<g>
</g>
<g>
</g>
<g>
</g>
</svg>
